<svg id="Layer_1" data-name="Layer 1" xmlns="http://www.w3.org/2000/svg" viewBox="0 0 636.82 608.51"><defs><style>.cls-1{fill:#fff;}</style></defs><title>BikeLogoWhiteText</title><path class="cls-1" d="M703.34,443.77l.32-4.16-2.5-.9c0-.17,0-.34,0-.51l2.46-2.54,0-4.18-2.55-.71c0-.18,0-.35,0-.53l2.26-2.69-.27-4.17-2.58-.53-.06-.53,2.06-2.85-.57-4.13-2.61-.35c0-.18-.07-.35-.1-.53l1.85-3-.85-4.08-2.63-.16c-.05-.18-.09-.36-.14-.53l1.63-3.1-1.13-4-2.65,0c0-.17-.11-.34-.17-.51l1.42-3.21L695.12,392l-2.64.21-.21-.49,1.19-3.31-1.69-3.81-2.63.39-.23-.45,1-3.4-2-3.69-2.6.58c-.08-.14-.17-.28-.25-.43l.71-3.47-2.21-3.54-2.56.77c-.09-.13-.19-.26-.28-.4l.46-3.52L678.72,364l-2.51.95-.3-.38.22-3.55-2.7-3.19L671,359l-.34-.35,0-3.56-2.91-3-2.34,1.29L665,353l-.28-3.54-3.12-2.78-2.24,1.45-.38-.32-.54-3.5-3.3-2.56-2.13,1.6-.41-.29-.78-3.45-3.47-2.31-2,1.74-.45-.26-1-3.39-3.63-2.06-1.87,1.88L639,335l-1.25-3.3-3.77-1.8-1.73,2-.48-.2-1.48-3.2L626.36,327l-1.6,2.13-.48-.16-1.71-3.1-4-1.25-1.44,2.24-.48-.12-1.93-3-4.06-1-1.29,2.35-.48-.09-2.14-2.85-4.12-.68L601.53,324l-.47-.05-2.35-2.7-4.15-.38-.87,2.29-2.27-2.31-4.18-.12-.78,2.56H586l-2.67-2.35-4.17.18-.6,2.6-.5,0-2.82-2.15-4.15.47-.41,2.63-.5.08-3-1.94-4.11.77-.22,2.64-.5.12-3.09-1.72-4,1.05,0,2.66-.48.15-3.2-1.5-2.15.72a17.41,17.41,0,0,0-3.83-8.69c-1.73-2.17-3.11-3.16-4.24-3.55-.22-1.68-.49-3.84-.78-6.22-.66-5.29-1.41-11.61-1.8-15.65s-1-11.94-1.75-19.39c-.37-3.72-.77-7.34-1.18-10.33a38.28,38.28,0,0,0-1.3-6.59c-.8-2.11-.89-4.77-3.24-7.63a18.35,18.35,0,0,0-4.57-3.82,8.13,8.13,0,0,0,3.1-.73,3.68,3.68,0,0,0,1.36-1.14,3.09,3.09,0,0,0,.52-1.73,2.3,2.3,0,0,0-1.17-2.06,5.09,5.09,0,0,0-2.55-.54,13.3,13.3,0,0,0-2.08.18,1.38,1.38,0,0,0-.41-.66,1.89,1.89,0,0,0-.38-.27c.36-.4.77-.86,1.15-1.33a13,13,0,0,0,.87-1.16c.11-.18.21-.35.3-.53a1.58,1.58,0,0,0,.15-.63.89.89,0,0,0-.29-.68.93.93,0,0,0-.66-.25,3.68,3.68,0,0,0-1.49.53c-.61.33-1.4.83-2.46,1.55a12.33,12.33,0,0,1-2.53,1.35,1.88,1.88,0,0,0,.33-1c0-.67-.78-1.56-1.54-2.33s-1.51-1.4-1.51-1.4l-6.93-7.77s-2.07-1.94-4.16-3.89l-4.33-4s0,0,0-.12a2.27,2.27,0,0,1,.62-1.2.61.61,0,0,0,.19-.45,1.55,1.55,0,0,0-.48-.94c-.06-.08-1-1.44-1.43-1.85a1.16,1.16,0,0,0-.9-.38h-.07a1.11,1.11,0,0,1,0-.39v-.24l-.05,0s-1.63-1.48-2.18-1.82a.49.49,0,0,0-.25-.08,1,1,0,0,0-.72.54,3,3,0,0,0-.24.44,1,1,0,0,1-.27,0,.4.4,0,0,1-.29-.09,1.92,1.92,0,0,0-1-.32c-.33-.06-.63-.08-.7-.09l-1.94-.73c-.5-.19-1-.38-1.38-.54l-.48-.21-.15-.07,0,0h0a5.18,5.18,0,0,0-3.56-1.37c-1,0-3.58.39-4.61,2.63a7.7,7.7,0,0,0-.7,3.19,8.39,8.39,0,0,0,.68,3.26c.79,1.86,3.75,2.37,4.46,2.48l-.05.17c-.29,0-1.12-.08-2-.08a6.69,6.69,0,0,0-1.74.16c-1,.32-3.67,1.71-3.84,4a5.62,5.62,0,0,0,0,.57A4.08,4.08,0,0,0,480,227c.11.12.13.19.13.22s0,.07-.12.11a.66.66,0,0,1-.16,0c-2.23.42-2.44,1.61-2.43,1.93a.24.24,0,0,0,0,.07v0l.45,1.06-.13.09a5.14,5.14,0,0,1-.73.4,1.62,1.62,0,0,0-1,1.66,4.91,4.91,0,0,0,.16,1.15c.26,1.08,1.49,1.29,2.47,1.29a8.25,8.25,0,0,0,1.41-.13l1.68,3.84-1.06.74a2.51,2.51,0,0,0-1.09,2,2.57,2.57,0,0,0,.42,1.35,2,2,0,0,0,1.75.68,7,7,0,0,0,1.39-.16l1,3.33c-1.14.71-1.34,1.17-1.33,1.62,0,.15,0,.28,0,.42,0,.49.32.73.29.83s0,.09-.11.18-2.07,1.42-3.9,2.6-3.62,2.31-3.62,2.31l-6,3.23c-10.93,5.88-33.44,18-38.67,20.59-7,3.49-41.67,22.66-57.24,31-14.76,7.93-30.29,10.87-38.58,10.87-.45,0-.87,0-1.27,0-7.89-.33-9.57-3.6-10.63-5.3-.51-.83-2.25-4.64-3.85-8.22-1.43-3.21-2.76-6.24-3-6.85a.87.87,0,0,0,.41-.78,1.7,1.7,0,0,0-.13-.62s-1-2.79-1.31-3.38a.92.92,0,0,0-.9-.47,2.06,2.06,0,0,0-.4,0l-20.73-56.18c.25-.15,1-.59,1.74-1.11.93-.66,1.9-1.39,2.08-2A1.58,1.58,0,0,0,297,235a1.79,1.79,0,0,0-.54-1.24v-.25c1.53-.05,2.76-1,8.1-4.82,5.5-4,7.24-4.25,8.87-4.25S327,225.56,328.54,226a4,4,0,0,0,1,.13,2.07,2.07,0,0,0,1.22-.33,1.36,1.36,0,0,0,.56-1.18,5,5,0,0,0-.79-2.34c-2-3.61-7.37-5-12.65-5.83a38.87,38.87,0,0,0-5.66-.37,134.37,134.37,0,0,0-16.89,1.46,203.94,203.94,0,0,1-25.64,1.35c-4.41,0-15.58-2.78-17.6-3.05a4.64,4.64,0,0,0-.63,0,2.44,2.44,0,0,0-2.17,1.07,7.35,7.35,0,0,0-.86,4.09c0,.24,0,.48,0,.73.17,5.16,1.9,5.75,2.4,5.75h.06c.67,0,4.84.06,6.82,2.06,1.35,1.33,4.14,1.57,6.19,1.57a22.67,22.67,0,0,0,2.34-.11l4,4a4.47,4.47,0,0,0,3,1.56h4.35A4.59,4.59,0,0,0,278,238c.48,1,2.54,1.24,3.88,1.56a3.79,3.79,0,0,1,1.79,1.44,9.67,9.67,0,0,1,.83,1.24l20.56,55.92c-.32.11-1.21.43-2,.77a3.25,3.25,0,0,0-2.14,2.69,2.53,2.53,0,0,0,.24,1.06A2.79,2.79,0,0,0,303.9,304a7.27,7.27,0,0,0,1.48-.16l.12.26,23.78,63-19.5,9.26-.24-.44-2.59.62-.27-.42.66-3.49-2.26-3.5-2.55.81-.29-.4.42-3.53-2.51-3.34-2.49,1-.32-.37.17-3.56-2.74-3.15-2.41,1.16-.34-.35-.09-3.56L289,350.88l-2.32,1.33-.37-.33-.33-3.54-3.16-2.73-2.22,1.48-.17-.13-.22-.18-.59-3.49-3.34-2.5-2.1,1.63-.42-.29-.83-3.44-3.51-2.26-2,1.78-.23-.13L267,338l-1.07-3.36-3.66-2-1.84,1.9-.47-.22-1.3-3.28-3.79-1.74-1.71,2h0l-.48-.19-1.53-3.18-3.91-1.47-1.56,2.15h0l-.48-.15-1.76-3.07-4-1.2L238,326.43l-.48-.12h0l-2-2.95-4.08-.9-1.25,2.36-.48-.08h0l-2.18-2.82-4.13-.62-1.09,2.46h0l-.43,0-2.39-2.67-4.16-.32-.82,2.3-2.32-2.27-4.17,0-.75,2.57-.48,0h0L204.08,321l-4.17.24-.56,2.61-.49,0L196,321.79l-4.14.54-.37,2.63h0l-.5.09h0l-3-1.89-4.09.82-.19,2.65h0l-.5.13-3.11-1.68-4,1.11v2.66h0l-.48.16-3.23-1.45L168.45,329l.19,2.66-.47.19-3.32-1.22L161,332.25l.38,2.64h0l-.15.07-.29.15-3.42-1-3.69,1.94.56,2.61-.41.25-3.49-.75L147,340.36l.75,2.58h0l-.2.14-.2.14-3.53-.5-3.39,2.43.93,2.52-.37.3-3.56-.25-3.21,2.67,1.1,2.44h0l-.35.32h-3.57l-3,2.89,1.27,2.35h0l-.33.35-3.56.26-2.8,3.09,1.44,2.26c-.11.12-.21.25-.32.38l-3.51.5L118,368.52l1.58,2.14-.29.41h0l-3.46.74-2.34,3.46,1.73,2-.27.44-3.39,1-2.09,3.61.93.95.93.94c-.08.15-.15.31-.23.46l-3.31,1.23-1.83,3.75,2,1.75c-.07.16-.14.32-.2.48l-3.21,1.45-.78,1.94-.78,1.94,2.11,1.6c-.06.17-.12.33-.17.5l-3.1,1.67-1.28,4,2.22,1.46c0,.16-.09.33-.13.5l-3,1.89-1,4.06,2.32,1.29-.09.5h0L98,416.77l-.71,4.11L99.7,422h0l-.06.5-2.7,2.3L96.52,429l2.49,1c0,.16,0,.33,0,.49l-2.53,2.5-.12,4.17,2.54.78c0,.17,0,.34,0,.51L96.56,441l.17,4.18,2.58.59c0,.17,0,.35,0,.52l-2.14,2.8.47,4.15,2.6.41h0l.09.54-1.92,2.92.76,4.11,2.62.22c0,.18.08.36.13.54l-1.71,3.05,1,4,2.63,0c0,.18.11.35.16.53l-1.49,3.16,1.33,4,2.63-.15c.07.17.14.34.2.51l-1.26,3.26,1.61,3.85h0l2.61-.33.24.49-1,3.35,1.87,3.73,2.59-.52.13.23.14.23h0l-.79,3.43,2.13,3.59,2.55-.71.29.44-.55,3.48,2.38,3.43,2.51-.88.31.41-.3,3.51,2.62,3.25,2.43-1.05.35.39h0l-.06,3.52,2.84,3.06,2.35-1.22.38.37.19,3.51,3,2.85,2.25-1.38.41.35.44,3.48,3.25,2.63,2.14-1.53.44.32.68,3.43,3.42,2.39,2-1.67.48.3.92,3.36,3.58,2.14,1.89-1.8.5.26,1.16,3.28,3.72,1.89,1.75-1.94.53.24,1.38,3.18,3.85,1.62,1.61-2,.54.19,1.6,3.08,4,1.35,1.47-2.17.55.15,1.82,3,4,1.06,1.32-2.27.54.11,2,2.84,4.11.78,1.15-2.37.27,0,.27,0,2.24,2.7,4.14.48,1-2.44h.27l.27,0,2.42,2.54,4.17.19.81-2.51h.55l2.59,2.35,4.17-.1.63-2.55h0l.56,0,2.74,2.15,4.15-.4.45-2.57.28,0,.29,0L231,548.8l4.11-.69.27-2.59.56-.13,3,1.74,4.06-1,.08-2.61.55-.16,3.11,1.52,4-1.27-.1-2.6.53-.21,3.22,1.3,3.88-1.54L258,538l.51-.24,3.31,1.07,3.76-1.81-.47-2.58.24-.14.25-.13L269,535l3.63-2.07-.66-2.55.46-.3,3.44.6,3.47-2.32-.83-2.51.42-.32,3.49.36,3.3-2.57-1-2.44.4-.35,3.51.11,3.1-2.79-1.18-2.36.38-.38,3.51-.14,2.9-3-1.34-2.27.35-.41,3.48-.38,2.68-3.2L301,503.54l.33-.44h0l3.43-.63,2.45-3.38-1.64-2,.31-.47h0l3.37-.87,2.2-3.54-1.78-1.92h0l.14-.25.14-.25,3.3-1.1,2-3.69-1.91-1.79.24-.52,3.21-1.33,1.68-3.82-1.65-1.34c.34-.07.66-.12.94-.15l-.27-1.12.27,1.12a1.29,1.29,0,0,0,1,.17,1.3,1.3,0,0,0,.83-.61,8.88,8.88,0,0,1,2.19-.52l-.44-1.85a7.27,7.27,0,0,1-1.08.34l-.49.1,1.37-3.81-2.15-1.51.15-.52,3-1.78,1.13-4-1.92-1.16h.06a36.53,36.53,0,0,0,8.73-.87c.75-.2,1.57-.46,2.44-.76a4.62,4.62,0,0,0-.06.63l-.11.86.84-.2c.43,0,.89-.32,1.3,0s.22.84.3,1.27v.86l.81-.3c.42-.07.84-.43,1.3-.15s.32.82.44,1.23l.1.85.77-.39c.41-.12.78-.52,1.26-.3s.42.77.6,1.16l.2.84.71-.49c.39-.17.72-.61,1.22-.45s.51.71.73,1.08l.3.81.65-.56c.37-.22.64-.7,1.16-.6s.59.64.85,1l.21.41a1.34,1.34,0,0,0-.63.57l.48,1.83a1.36,1.36,0,0,0,1,.15,1.34,1.34,0,0,0,.82-.64,8.83,8.83,0,0,1,1.07-.37c.4-.1.78-.18,1.11-.23l-.33-1.18h0l.33,1.18a1.27,1.27,0,0,0,1,.13,1.3,1.3,0,0,0,.81-.65,8,8,0,0,1,1.06-.39,10,10,0,0,1,1.11-.25h0a1.33,1.33,0,0,0,1,.1,1.29,1.29,0,0,0,.79-.67,7.76,7.76,0,0,1,1.06-.43,10.82,10.82,0,0,1,1.09-.3v0a1.32,1.32,0,0,0,1.05.06,1.34,1.34,0,0,0,.77-.72c.29-.15.65-.32,1-.48l.29-.12.28.15,0-.25.48-.15-.34-.79.34.79a1.42,1.42,0,0,0,1.07,0,1.33,1.33,0,0,0,.71-.8c.28-.19.62-.39,1-.61s.73-.39,1-.55l-1-1.46,1,1.46a1.35,1.35,0,0,0,1.09-.28,1.3,1.3,0,0,0,.54-1l.79-.91c.31-.32.57-.63.82-.87l-.3-.23h0l.3.23a1.39,1.39,0,0,0,.93-.6,1.37,1.37,0,0,0,.2-1.08c.12-.29.27-.62.45-1h.16l-.07-.17c.18-.36.37-.68.53-1h0a1.3,1.3,0,0,0,.76-.76,1.34,1.34,0,0,0,.08-.73l.33,0-.35-.68c.06-.23.13-.49.21-.75s.2-.61.31-.86c3.93.38,10.16,1,16.28,1.69l4.29.46c-.86.67-1.31,1.27-.69,1.58,1.57.8,5.12,6,4.9,6.84s-.19,2,.51,1.48,4.41-4.74,5.1-5.19,2.5-1.84,3.28-1.91,1.41-1,1.72-1.33c0,0,0,0,0-.07a5.29,5.29,0,0,0,2-.52,5.44,5.44,0,0,0,2.94-3.54l0-.13,2.21-1.59a20.13,20.13,0,0,0,2.75-1.32c1.53-1,6.85-3.62,5.27-4.42s-5.12-6-4.9-6.84.19-2-.51-1.48-4.41,4.74-5.1,5.19-2.5,1.83-3.28,1.91-1.41,1-1.72,1.32a1.26,1.26,0,0,0-.1.52h-.06l-25.89-4.22a45.23,45.23,0,0,0,7.06-4.51c3.57-2.85,14.87-19.52,14.88-19.53L436,366.89l2-2.94c8.83-13.13,44.43-66.05,48.8-72.18,3.76-5.24,7.31-5.86,8.82-5.87a3.86,3.86,0,0,1,.66.05c0,2.42,1.61,2.86,1.64,2.86H498a1.65,1.65,0,0,1,.31,0c.31,0,.64.07.64.56a7.81,7.81,0,0,0,2.46,5.07,1.1,1.1,0,0,0,.8.3c.85,0,1.92-.59,3.09-.59.32,0,.88.42,1.48,1.14a49.13,49.13,0,0,1,4.69,7.56,1.39,1.39,0,0,0,1.23.92,1.22,1.22,0,0,0,.45-.09L528.28,338l-2.39,1.42.71,2.59-.4.27-3.53-.56-3.42,2.39.89,2.53c-.13.09-.25.19-.37.29l-3.56-.3L513,349.2l1.07,2.47-.35.31-3.57-.05L507,354.77l1.24,2.38-.34.34-3.56.2-2.85,3.06,1.4,2.27c-.1.13-.21.25-.32.38l-3.52.45-2.63,3.24,1.55,2.17c-.09.13-.2.27-.29.41l-3.47.69-2.4,3.42,1.7,2.05-.27.43-3.41.94-2.15,3.58,1.84,1.91-.25.46L486,384.33l-1.89,3.72,2,1.78-.21.48-3.23,1.4L481,395.56l2.09,1.64-.18.49-3.12,1.62-1.35,4,2.2,1.49c-.05.16-.09.33-.14.49l-3,1.85-1.06,4,2.31,1.33c0,.17-.07.33-.1.5L475.76,415l-.78,4.1,2.4,1.18-.06.49-2.74,2.26-.48,4.15,2.48,1,0,.49L474,431.16l-.19,4.17,2.53.82c0,.17,0,.34,0,.51L474,439.27l.11,4.18,2.57.63c0,.18,0,.35,0,.53l-2.18,2.76.41,4.16,2.59.45c0,.18.06.35.08.53l-2,2.9.69,4.12,2.62.26.12.54-1.75,3,1,4.05,2.63.08c.05.18.1.35.16.53l-1.54,3.14,1.27,4,2.63-.1.19.51-1.31,3.24,1.55,3.88,2.62-.29c.07.16.15.32.22.49l-1.07,3.33,1.81,3.76,2.6-.48c.08.16.17.31.26.47l-.85,3.41,2.08,3.62,2.56-.66.29.44-.6,3.47,2.32,3.47,2.52-.85.31.42-.36,3.51,2.57,3.29,2.45-1c.11.13.22.27.34.4l-.11,3.52,2.79,3.1,2.37-1.18.37.37.14,3.51,3,2.91,2.27-1.35.4.35.39,3.48,3.2,2.68,2.17-1.49.44.33.63,3.44,3.38,2.44,2-1.64.47.3.87,3.38,3.55,2.2,1.92-1.78.5.28,1.1,3.29,3.69,1.95,1.79-1.91.52.24,1.33,3.2,3.82,1.68,1.65-2,.54.2,1.55,3.1,3.93,1.41,1.5-2.15.55.17,1.77,3,4,1.12,1.35-2.25.54.12,2,2.87,4.09.84,1.19-2.35.54.08,2.19,2.73,4.14.55,1-2.43.53,0,2.38,2.57,4.17.26.85-2.49H588l2.55,2.39,4.18,0,.66-2.53.56,0,2.71,2.2,4.16-.34.48-2.57.57-.07,2.84,2,4.13-.63.3-2.59.57-.11,3,1.78,4.07-.92.12-2.6.56-.16,3.09,1.57,4-1.21-.07-2.6.54-.2,3.2,1.35,3.9-1.48-.25-2.61.52-.23,3.29,1.12,3.79-1.75-.44-2.59.5-.26,3.37.89,3.65-2-.62-2.56.46-.28,3.44.65,3.51-2.27-.8-2.52.43-.31,3.49.41,3.33-2.52-1-2.45.41-.35,3.51.17,3.15-2.74-1.15-2.38.39-.38,3.51-.08,2.94-3L672.25,511c.13-.13.24-.27.37-.4l3.48-.33,2.73-3.16-1.46-2.19c.11-.14.22-.29.34-.43l3.44-.58,2.5-3.34L682,498.48l.31-.47,3.39-.81,2.26-3.52-1.75-1.94.28-.5,3.32-1,2-3.67L690,484.71c.08-.17.16-.34.25-.51l3.23-1.28,1.74-3.79-2-1.69.21-.52,3.14-1.51L698,471.5,695.87,470l.16-.52,3-1.74,1.18-4L698,462.3c0-.17.09-.34.13-.52l2.91-1.95.91-4.07-2.35-1.24.09-.52,2.78-2.16.61-4.13-2.43-1.07c0-.17,0-.34.05-.51ZM300.82,417.62l-.23,0,0,1.9.53-.07c.36,1.95.64,3.92.87,5.9l-37.58-1.64,7.87-3.61a7.89,7.89,0,0,1,1,.06,1.41,1.41,0,0,0,1,.38,1.39,1.39,0,0,0,1-.43l0-1.35h0l0,1.35a7.56,7.56,0,0,1,1.14-.1,8.18,8.18,0,0,1,1.15,0,1.36,1.36,0,0,0,1.94,0h0a9.13,9.13,0,0,1,1.14-.1,8,8,0,0,1,1.14.05,1.37,1.37,0,0,0,1,.38,1.35,1.35,0,0,0,1-.43h0a9.13,9.13,0,0,1,1.14-.1,8,8,0,0,1,1.14.05,1.39,1.39,0,0,0,1.95,0l0-1.9a1.38,1.38,0,0,0-1.94,0,7.47,7.47,0,0,1-1.14.11,8,8,0,0,1-1.14-.05l0,.95,0-.95a1.38,1.38,0,0,0-1.94,0,6.45,6.45,0,0,1-1.14.1,6.91,6.91,0,0,1-1.15-.05l0,1.79,0-1.78a1.35,1.35,0,0,0-1.94,0,7.56,7.56,0,0,1-1.14.1h-.05l22-10.1A91.68,91.68,0,0,1,300.82,417.62Zm-2.61-10-23,10.53a1.41,1.41,0,0,0-1-.37,1.35,1.35,0,0,0-1,.43,9.13,9.13,0,0,1-1.14.1,8.18,8.18,0,0,1-1.15-.05l.05,1.8h0l-.05-1.8a1.37,1.37,0,0,0-1-.38,1.35,1.35,0,0,0-1,.43,9.13,9.13,0,0,1-1.14.1,8,8,0,0,1-1.14-.05l0,1.78,0-1.78a1.38,1.38,0,0,0-1.94,0,7.47,7.47,0,0,1-1.14.11,8,8,0,0,1-1.14,0l0,1.89a9.13,9.13,0,0,1,1.14-.1,8,8,0,0,1,1.14.05,1.37,1.37,0,0,0,1,.38,1.35,1.35,0,0,0,1-.43h0a7.47,7.47,0,0,1,1.14-.11,8.18,8.18,0,0,1,1.15.05,1.38,1.38,0,0,0,.83.37l-6.63,3-22.22-1,1.67-1.9a7.68,7.68,0,0,1,1,.05,1.37,1.37,0,0,0,1,.38,1.35,1.35,0,0,0,1-.43l0-1.89a1.33,1.33,0,0,0-.64-.34c13.17-5.71,29.58-13.11,43.81-19.52l5.05-2.28A90.32,90.32,0,0,1,298.21,407.64Zm-54.1,30,3.22.55,16.83,7.58L244.89,447l-3-.57a10.36,10.36,0,0,1,0-3.14c.4-1.61,2.15-3,2.31-4.75A3.34,3.34,0,0,0,244.11,437.68Zm5.23.89,35.3,6-19.38,1.16ZM283,454.3l-29-5.59-7.05-1.35,18.22-1.1Zm-48.86-41.53a4.92,4.92,0,0,0-1.22-2l-.14-.11.84-2.24,2.71.49c1.41.24,2.88.49,4.35.71Zm2.17,53.77,5.13,13.33-7.54-6.64C234.62,471.48,235.51,468.81,236.31,466.54ZM226.6,472l.77.51h0l-.77-.52a8,8,0,0,1-.54,1,8.55,8.55,0,0,1-.66.87,1.26,1.26,0,0,0-.84.55,1.22,1.22,0,0,0-.16,1l1.59,1a1.19,1.19,0,0,0,.65-.33,18.35,18.35,0,0,1-3.41,7.4l.13-3c.17-.25.34-.47.49-.65l-.44-.28h0l.44.28a1.25,1.25,0,0,0,.83-.57,1.28,1.28,0,0,0,.15-1,7,7,0,0,1,.51-.95,8.56,8.56,0,0,1,.65-.87l-1.6-1a6.12,6.12,0,0,1-.52.95c-.11.18-.23.35-.34.5l.53-11.54,3.85,3.4c0,.55-.12,1.12-.2,1.69l-.09.09a1.31,1.31,0,0,0-.85.55A1.25,1.25,0,0,0,226.6,472Zm-4.36,6.77.66.41h0l-.66-.41a7,7,0,0,1-.51,1,6.13,6.13,0,0,1-.63.9,1.25,1.25,0,0,0-.82.59l0,.06-6.45-14.18c1.63,0,3.4,1.09,4.94.74s2.83-2.32,4.37-2.95l.37-.13.08.07L223,477.23a1.26,1.26,0,0,0-.75,1.5Zm-9.21-77,8.3-18.7,1.29,20.16-.88,0a11.24,11.24,0,0,1-2.89-.27c-1-.29-1.39-1.54-3.55-1.54A9.64,9.64,0,0,0,213,401.78Zm11.12,62.85.07-.05c1-.14,2.15-.06,3.13-.29a2.08,2.08,0,0,1,.62,1.19,6,6,0,0,1,.07,1c0,.44,0,.94-.07,1.48Zm3.06-61.91h0l12.22-11.22-5.79,15.4-2.51-.48c.2-.67.37-1.21.45-1.5a.57.57,0,0,0,0-.18c0-.62-.75-1.07-1.63-1.43A8,8,0,0,0,227.21,402.72Zm3.47,5.12,2.43.47-.78,2.05a9.67,9.67,0,0,0-2.23-.68C230.28,409.1,230.48,408.46,230.68,407.84Zm10.81,13h0l.56-.07-1.61,1.84h-.24c0-.46-.07-.92-.09-1.39a1.4,1.4,0,0,0,.41.06A1.39,1.39,0,0,0,241.49,420.86Zm0-.8h0v0Zm-.52-1.39a1.15,1.15,0,0,0-.49-.08,1.29,1.29,0,0,0-.79.28,2,2,0,0,0-.11-.21c0-.07-.09-.13-.13-.19l7.64-3.37-1.32,1.5ZM238,452.33c.88-1.43,3-2.23,3.65-3.8h0l13.77,15.13L237.7,457a9.33,9.33,0,0,0-.7-1.37A12.6,12.6,0,0,1,238,452.33Zm5.41-24.11c-.37-1.66-2.31-2.82-2.94-4.38a2.06,2.06,0,0,1-.12-.35l.29-.34,21.64,1-19.6,9C242.76,431.47,243.78,429.73,243.43,428.22ZM293,394.85l.27.54c-14.45,6.51-32.05,14.48-46.39,20.72l1.33-1.5Zm-4.7-8.28-16,7.62-7.63,3.75-3,1.49L281.29,377A92.13,92.13,0,0,1,288.28,386.57Zm-17.23-19.93a90.75,90.75,0,0,1,9.9,10L260.36,400c-5.05,2.47-11.18,5.47-17.3,8.43-2.11-.28-4.38-.65-6.47-1l-2.44-.44,6.12-16.28,28.41-26.08C269.49,365.29,270.27,366,271.05,366.64ZM266.57,363c.58.44,1.14.88,1.71,1.33l-27.6,25.33,13.09-34.83A91.42,91.42,0,0,1,266.57,363Zm-19.45-11.32c1,.42,2,.87,3,1.33s2.17,1,3.23,1.58l-13.48,35.85-13.56,12.44a17.67,17.67,0,0,1-3.14.36l-1.36-21.16L236.88,348A88.87,88.87,0,0,1,247.12,351.67Zm-10.75-3.81L221.7,381l-2.32-36.22A92,92,0,0,1,236.37,347.86Zm-32.68-3.19q3.19-.27,6.44-.3c2.88,0,5.8.07,8.73.31h0L221.25,382l-8.86,20-.32.09a2.11,2.11,0,0,0-1.58,1.85,6.82,6.82,0,0,1-.84.27l-9.75-21.4,1.67-37.9ZM200,468.09c.17-.35.16-.52.52-.53l.28,0a20.42,20.42,0,0,0,2.54.53.75.75,0,0,0,.37-.08.33.33,0,0,0,.17-.31c0-.2,0-.36,0-.48s0-.17.13-.24a2.48,2.48,0,0,1,.91-.11l.3,0c1.07.66,2.12,1.53,3.3,1.63a4,4,0,0,0,1.71-.29l-9.06,20.36-1.26-20.28A1.13,1.13,0,0,0,200,468.09Zm-.47-61.62-.14,0-.48-.43,1-22.19,9.28,20.35h0c-1.71.12-3.61-1.11-5.24-.73S201,405.84,199.49,406.47Zm-11.15-59.2a90.82,90.82,0,0,1,12.7-2.34l-1.62,36.8-15.18-33.29C185.6,348,187,347.63,188.34,347.27Zm-15.29,5.48a90.4,90.4,0,0,1,10.7-4.15h0l15.62,34.26-1,22.79-17.72-15.56-13.17-34.53C169.3,354.56,171.16,353.63,173.05,352.75Zm23.72,114.67L183.07,480l7.08-19.06c1.31.74,3.21.68,4.48,1.47a9,9,0,0,1,2,2.06,3.2,3.2,0,0,0-.17,1.11A5.58,5.58,0,0,0,196.77,467.42Zm-2.47-60c-1.45.88-2,3.08-3.25,4.16a6.3,6.3,0,0,1-1.84,1L181,391.12l17.3,15.19,0,.44C197,406.93,195.41,406.74,194.3,407.4Zm-39.43-43.5a91,91,0,0,1,9.5-6.55c.88-.53,1.76-1,2.65-1.54l12.8,33.56L152.76,365.6C153.46,365,154.16,364.46,154.87,363.9Zm-2.5,2h0l27.84,24.46,8.52,22.31a5.8,5.8,0,0,0-2.34,1.34l0,0-20.65-7.77L140.1,378.5A91.13,91.13,0,0,1,152.37,365.93Zm26.31,68.43-19.84-9,21.84-1.31c0,1.31.37,2.77.07,4-.4,1.61-2.15,3-2.3,4.74A4,4,0,0,0,178.68,434.36Zm1.21,3.52c.12,1.71-1.1,3.59-.72,5.23s2.32,2.81,3,4.37a2,2,0,0,1,.1.26L182,448l-22.42-.91,20.26-9.51C179.87,437.67,179.88,437.77,179.89,437.88ZM166.5,407.14l19.57,7.37c-.75,1.3-.69,3.21-1.48,4.48-.89,1.43-3,2.24-3.66,3.8h0Zm15.73,41.36h.15c.19,1.4,0,3,.66,4.16.88,1.44,3.08,1.95,4.16,3.24a5.41,5.41,0,0,1,.87,1.59l-20.64,7.86Zm-42.46-69.59,24.88,27-34.12-12.85A91,91,0,0,1,139.77,378.91Zm-16,30.58c.58-1.95,1.23-3.88,1.93-5.77a90.62,90.62,0,0,1,4.54-10.2l35.14,13.22,15.33,16.63,0,.18-22.9,1.36-34-15.42Zm-2.18,8.92q.83-4.29,2-8.42l33.06,15-36.33,2.16C120.68,424.18,121.1,421.27,121.64,418.41ZM120,437.31h8.73a1.65,1.65,0,1,0,0-3.29H120c0-2.08.14-4.16.33-6.26a.34.34,0,0,1,0-.1h0l37.38-2.23,21.2,9.61c.27.68.6,1.35.79,2l-21.26,10-37.95-1.55C120.23,442.79,120.06,440.06,120,437.31Zm.57,8.69,36.88,1.5L124.2,463.11A90.34,90.34,0,0,1,120.58,446Zm3.78,17.6,34.22-16.06,23,.94L166.4,465.76l-35.34,13.46A90.84,90.84,0,0,1,124.36,463.6Zm7,16.08h0l34.37-13.1-24.35,27.73A91,91,0,0,1,131.31,479.68Zm10.36,15,25-28.52L188.25,458a6.11,6.11,0,0,0,1.43,2.59l0,0-7.48,20.13-28.33,25.94A91.64,91.64,0,0,1,141.67,494.71ZM154.31,507l27.54-25.22-12.92,34.78A91.71,91.71,0,0,1,154.31,507Zm15.09,9.8L182.68,481,197,467.91a1.76,1.76,0,0,0,1.44,1h.18a2,2,0,0,0,.73-.22l1.3,20.86-15,33.7A90.22,90.22,0,0,1,169.4,516.8Zm16.74,6.64h0l14.58-32.74L203,526.57A91.76,91.76,0,0,1,186.14,523.44Zm34.6,3c-2.82.29-5.68.45-8.56.48H210q-3.26,0-6.56-.33l-2.29-36.94L210.84,468a10.27,10.27,0,0,1,2.41-.86l6.89,15.13a8.05,8.05,0,0,1-.46.94,8.67,8.67,0,0,1-.6.92,1.25,1.25,0,0,0-.8.64,1.22,1.22,0,0,0-.07,1l1.6.81h0l-1.6-.81c-.11.31-.25.67-.42,1s-.35.72-.52,1a1.28,1.28,0,0,0-.71.87,1.58,1.58,0,0,0,.05,1c-1.21,1.21-2.05,2.1-2.13,2.18a2.37,2.37,0,0,0-1,1.6,1.27,1.27,0,0,0,.23.71c.36.52.34.83.6,1.15s.77.49,2.1.78,3.82.85,5.65,1.27l-1.33,29.13Zm.51-.05,1.33-29,2.1.48.07.42a1.34,1.34,0,0,0,1,.22,1.3,1.3,0,0,0,.71-.38,4,4,0,0,0,.88-.12l11.26,24.71A91.13,91.13,0,0,1,221.25,526.43Zm30.09-8.71a91.45,91.45,0,0,1-12.22,4.92l-11.26-24.71a3.59,3.59,0,0,0,.62-.31l.37,0,0-.2,0,.2a1.34,1.34,0,0,0,1,.21,1.3,1.3,0,0,0,.86-.59,8,8,0,0,1,1.08-.29,7.34,7.34,0,0,1,1.12-.16l-.39-1.85a8.57,8.57,0,0,1-1.08.3,8.34,8.34,0,0,1-1.11.15,1,1,0,0,0-.17-.1,1.58,1.58,0,0,0,0-.28v-.05l.19,0h.1a.74.74,0,0,0,.74-.75v-.1l-.14-1.25v-.09a1.15,1.15,0,0,1,.53-.95l1.09-.62a.73.73,0,0,0,.4-.65.77.77,0,0,0-.21-.52l-.85-.94a1.15,1.15,0,0,1-.26-.75,1.06,1.06,0,0,1,.08-.4l.52-1.15a.83.83,0,0,0,.07-.34.72.72,0,0,0-.61-.71l-1.23-.26a1.18,1.18,0,0,1-.83-.82l-.25-1.24a.8.8,0,0,0-.32-.49c1.53-3.14,3.56-7.26,4.31-8.86l.15-.34,8.14,7.18L246,491.63a1.49,1.49,0,0,0-.42,0,1.34,1.34,0,0,0-.84.61h0a7.23,7.23,0,0,1-1.07.32,7.68,7.68,0,0,1-1.11.18,1.34,1.34,0,0,0-1-.19,1.28,1.28,0,0,0-.84.6l.4,1.85a1.37,1.37,0,0,0,1,.19,1.34,1.34,0,0,0,.84-.6,7.77,7.77,0,0,1,1.08-.32,7.35,7.35,0,0,1,1.11-.17l-.21-.93.21.92a1.34,1.34,0,0,0,1,.19,1.41,1.41,0,0,0,.69-.4l8.39,21.81C254,516.41,252.65,517.08,251.34,517.72Zm-3.67-26.05a8.22,8.22,0,0,1-1.08.17l-3.93-10.2,10,8.81a8,8,0,0,1-.93.28,9.37,9.37,0,0,1-1.11.18,1.35,1.35,0,0,0-1-.18,1.33,1.33,0,0,0-.84.61h0A8.77,8.77,0,0,1,247.67,491.67Zm8,23.79-8.42-21.87c.25-.08.52-.16.8-.22a6.46,6.46,0,0,1,1.12-.18l-.22-.93.22.93a1.33,1.33,0,0,0,1,.18,1.37,1.37,0,0,0,.84-.62,7.23,7.23,0,0,1,1.07-.32,7.83,7.83,0,0,1,1.11-.19h0a1.36,1.36,0,0,0,1,.18,1.35,1.35,0,0,0,.42-.19l15.24,13.43A92.16,92.16,0,0,1,255.68,515.46Zm19.11-14.2c-1.45,1.41-3,2.76-4.49,4.07L255,491.87a.18.18,0,0,1,.05-.07,7.18,7.18,0,0,1,1.07-.33,7.38,7.38,0,0,1,1.11-.19l-.44-1.85a7.27,7.27,0,0,1-1.08.34,7.49,7.49,0,0,1-1.1.19,1.36,1.36,0,0,0-1-.18,1.38,1.38,0,0,0-.58.32l-10.78-9.5-5.69-14.8a31.22,31.22,0,0,1,1.19-3,6,6,0,0,0,.57-2.67,8.23,8.23,0,0,0-.4-2.48l18.27,6.85L274.83,485h-.05a1.33,1.33,0,0,0-1-.16,1.35,1.35,0,0,0-.82.63l.23.92-.23-.92a7.47,7.47,0,0,1-1.07.35,7.62,7.62,0,0,1-1.11.21,1.33,1.33,0,0,0-1-.16,1.36,1.36,0,0,0-.83.63l.47,1.83a1.33,1.33,0,0,0,1.85-.46,8.34,8.34,0,0,1,1.07-.36,9.08,9.08,0,0,1,1.11-.2h0a1.29,1.29,0,0,0,1,.15,1.33,1.33,0,0,0,.83-.63,9.54,9.54,0,0,1,.95-.32l6.05,6.65A91.44,91.44,0,0,1,274.79,501.26Zm14.66-18.35-.28-1,.28,1Zm1.3-2.23a1.3,1.3,0,0,0-.93-.1,1.33,1.33,0,0,0-.82.64h0a8.34,8.34,0,0,1-1.07.36,7.76,7.76,0,0,1-1.1.21,1.36,1.36,0,0,0-1-.14,1.33,1.33,0,0,0-.82.64l.49,1.83a1.36,1.36,0,0,0,1,.14,1.32,1.32,0,0,0,.82-.63,8.09,8.09,0,0,1,1.06-.37,8.24,8.24,0,0,1,1-.19c-.51.84-1,1.67-1.58,2.5q-2.43,3.71-5.19,7.15l-5.8-6.38a5.89,5.89,0,0,1,.65-.11L277,484.4a9,9,0,0,1-1.07.35l-.46.11-18.18-20,35,13.11Q291.52,479.35,290.75,480.68Zm5.69-12a91.31,91.31,0,0,1-4,8.84L256.5,464l-14.65-16.1a2.7,2.7,0,0,0,0-.28l4-.24,1.81.35c3.77.72,6.25,1.19,6.25,1.2L284,454.76l14.87,6.7C298.18,463.91,297.35,466.32,296.44,468.68Zm3.44-10.86c-.26,1.05-.54,2.1-.84,3.14l-12.81-5.77,13.65,2.63Zm.07-.26-14.75-2.84-18.93-8.52L286.88,445l14.95,2.55A94.3,94.3,0,0,1,300,457.56Zm1.91-10.31L288,444.89l14.18-.85C302.11,445.11,302,446.18,301.86,447.25Zm.4-3.73-16.47,1-37.4-6.36-4.87-2.2a9.37,9.37,0,0,1-.79-2.32l20.7-9.48,38.65,1.69A91.43,91.43,0,0,1,302.26,443.52ZM332.74,377l2.06,4.82h-.29c-.58,0-1.15,0-1.7,0a41.9,41.9,0,0,0-8,.79c-1,.2-1.85.4-2.5.54a9.29,9.29,0,0,1-1.2.23,1.8,1.8,0,0,0-.55.1c-.7.21-2.06.76-4,1.59l-1.73.74-.22-.47-.11-.23Zm4.38,12.16-.06-.09a2.79,2.79,0,0,0-.35-.36,1.23,1.23,0,0,0-.78-.36,1,1,0,0,0-.64.3,18.14,18.14,0,0,0-3.81,5.16,3.63,3.63,0,0,0-.33,1.54c0,1.74,1.15,3.34,1.63,4.23a2.51,2.51,0,0,0,1.26,1,3.57,3.57,0,0,0,.83.24l.15,0-4.71,16h-.15v.48h0v-.48l-.1-.08a1.34,1.34,0,0,0-.88-.3,1.38,1.38,0,0,0-1,.42,7.47,7.47,0,0,1-1.14.11,8,8,0,0,1-1.14-.05l0,1.89a9.13,9.13,0,0,1,1.14-.1,8,8,0,0,1,1.14.05,1.38,1.38,0,0,0,1,.38h.12l-3.24,11v-.52l-2.56-.67c0-.18,0-.36,0-.53l2.22-2.73-.33-4.16-2.59-.49c0-.18-.05-.36-.07-.53l1.17-1.67H324a1.37,1.37,0,0,0,1,.38,1.35,1.35,0,0,0,1-.43l0-1.89a1.34,1.34,0,0,0-1-.38,1.09,1.09,0,0,0-.36.06l-.46-3.09-2.62-.3c0-.18-.07-.36-.11-.53l1.8-3-.91-4.08-2.63-.12-.15-.52,1.59-3.12-1.2-4-2.64.06-.18-.5,1.36-3.23L317,390.35l-2.63.26-.21-.49,1-2.84,3.25-1.38c.86-.36,1.56-.63,2.06-.82l.59-.2.15,0h0a8.5,8.5,0,0,0,1.49-.26,43,43,0,0,1,10.17-1.29c.76,0,1.54,0,2.35.07l.3,0,2.35,5.5Zm9.09-50.27a25.6,25.6,0,0,1,3.65-2.81c2.36-1.39,18.47-9.27,19.82-10l26.39-13.57a19.51,19.51,0,0,1,1.85-1,9,9,0,0,1,3.39-1,1.5,1.5,0,0,1,1.52.81,23.18,23.18,0,0,1,1.58,3.79,3.87,3.87,0,0,1-.65,0,20.46,20.46,0,0,1-2.62-.21,9.32,9.32,0,0,0-1.39-.12,3.36,3.36,0,0,0-2.61,1.11l-2.72,2.73a1.45,1.45,0,0,0-.87,1.48c0,.11,0,.22,0,.35a4.39,4.39,0,0,1,.06.6.59.59,0,0,1-.23.51c-.19.19-.51.46-1,1s-2.36,2.06-3.92,3.31c-1.39,1.12-2.66,2.11-2.92,2.32a3.12,3.12,0,0,0-.62-.06,3.27,3.27,0,0,0-2.32.93c-.61.62-2.53,2.28-4.29,3.78L375,335.75a1.37,1.37,0,0,0-.63.93.65.65,0,0,0,.13.38,2.75,2.75,0,0,0-.48,1.39,1.17,1.17,0,0,0,.23.73c-.11.08-.28.21-.45.36a1.56,1.56,0,0,0-.61,1,.55.55,0,0,0,.09.3l-13.81,10.94a1.69,1.69,0,0,0-.69,1.07.66.66,0,0,0,.06.27l-1.8,1.8V355a.5.5,0,0,1,0,.18c0,.1-.08.14-.16.15h-.07c-.26-.07-.81,0-1.43-.08a2.65,2.65,0,0,1-1.57-.52c-.34-.35-2.36-3.35-4.25-6.24s-3.71-5.69-3.71-5.7l-1.36-2.11C344.62,340.4,345.31,339.72,346.21,338.92Zm-5,22.93c-.17-.34-.69-1.39-1.21-2.63a13.72,13.72,0,0,1-1.25-4.26,40.71,40.71,0,0,0-.27-4.38v-.31a4.55,4.55,0,0,1,.06-.81,1.27,1.27,0,0,1,.11-.3c0-.06.07-.07.1-.07l.27,0c.06,0,.1,0,.29.22s.48.6,1,1.29l.1-.07-.1.07s.72.95,1.47,2a15.86,15.86,0,0,1,1.69,2.7,16.84,16.84,0,0,1,.27,3.05c0,1,0,2,0,2.28Zm9.65,96-7.1-.68-.73-1.71c.2-.38.41-.77.66-1.18,2.27-1.12,3.86-2,4-2l1.51-.49,4.23,2.32Zm35.65-42.46a4.33,4.33,0,0,0-1.72-.45,1.67,1.67,0,0,0-1.57.91,2.45,2.45,0,0,0-.32,1.14,2,2,0,0,0,.26,1,1.77,1.77,0,0,1,.23.49s0,0,0,0c-.36.36-2.09,2.88-8,3.5-1.11.11-2.13.2-3.08.2-4.09,0-6.95-1.62-10.92-10.33-2.45-5.37-5.43-12.67-7.81-18.64-.8-2-1.53-3.85-2.14-5.42.7.34,1.42.72,2.14,1.11,6.07,3.36,11,6.68,15.79,9.19s9.33,4.21,14.57,4.2a30,30,0,0,0,11.2-2.35,3.48,3.48,0,0,0-.05.36,1.07,1.07,0,0,0,.6,1Zm-29-26A106.84,106.84,0,0,1,370.46,397l-.38-.19C366.26,394.8,362.24,392.2,357.53,389.46ZM466,290.71c-1.11,1.8-17.72,27.54-34.05,52.82l-32.31,50a1.47,1.47,0,0,0-.43-.07,1.75,1.75,0,0,0-1.53,1.08c-.35.63-.84,1.65-1.28,2.61a32.07,32.07,0,0,1-12.53,2.95,19.69,19.69,0,0,1-11.82-3.81c-7.35-5.3-16.91-9.78-21.95-12-.36-.91-.58-1.49-.64-1.65l4-14.91a4.92,4.92,0,0,0,2.46-3.94,3.05,3.05,0,0,1,.36-.66,2.55,2.55,0,0,1,1.25-.95,9,9,0,0,0,4.77-2.51c.43-.44.63-.52.74-.51s.26.09.53.1a2.48,2.48,0,0,0,1.33-.59c1.83-1.3,12.82-10.28,13.69-11a3.14,3.14,0,0,0,.8.13.83.83,0,0,0,.57-.18l.39-.39a1.28,1.28,0,0,0,.74.25,1,1,0,0,0,.66-.24,1.85,1.85,0,0,0,1.08.56.69.69,0,0,0,.49-.2c.25-.26,2.56-2.07,4.78-3.8,2-1.59,4-3.11,4.34-3.37a2,2,0,0,0,.31,0,.78.78,0,0,0,.21,0,.21.21,0,0,0,.14-.15.52.52,0,0,0,.07-.32c0-.16,0-.34,0-.51a.59.59,0,0,1,.11-.41c.15-.14,2.17-1.87,4.14-3.54l3.91-3.3.05-.06a1.31,1.31,0,0,1,.84-.25,2.47,2.47,0,0,1,.44,0,5.52,5.52,0,0,1,1.11.34,2.87,2.87,0,0,1,.36.19l1.19,1.05h0a1.08,1.08,0,0,0,.44.11.71.71,0,0,0,.52-.21c.18-.18.88-1,1.55-1.79l.89-1.08.29-.36.09-.11v0c.1,0,.43,0,.77-.08a2.28,2.28,0,0,0,1.26-.56c.66-.66,2.19-1.85,2.2-1.85a1.39,1.39,0,0,0,.57-1,1,1,0,0,0-.17-.53,21.07,21.07,0,0,0-1.32-1.78v-.84l-.08,0-.25-.14a.83.83,0,0,1-.17-.11l0,0a3.92,3.92,0,0,1,.58-.54.29.29,0,0,0,.06-.19,1.49,1.49,0,0,0-.34-.75,1,1,0,0,0-.69-.5c-.09,0-.08,0-.09-.13a1,1,0,0,1,.24-.59c.22-.23,14.6-16.91,19.36-21.08s11.18-9.47,13.92-11.05l15-8.63a12.86,12.86,0,0,1,1.65-1,7.59,7.59,0,0,1,3.38-1,2.9,2.9,0,0,1,2.84,2,10.51,10.51,0,0,1,.9,4.05C468.67,286.21,467.51,288.28,466,290.71ZM676.25,409.47a91.5,91.5,0,0,1,3.39,17.24l-37.55-2.22Zm-.15-.5L641,424.43l-22.21-1.32,15.69-17.27,35-12.84A91.19,91.19,0,0,1,676.1,409Zm-54.85,28.17,20.21,9.48-22.26,1c0-1.27-.32-2.69,0-3.88.43-1.61,2.2-3,2.38-4.71A4.29,4.29,0,0,0,621.25,437.14Zm-65,10.22-19.35-1.08,18.87-8.5a5.6,5.6,0,0,0-.11,1.09,5.68,5.68,0,0,0,.82,2.95,4.87,4.87,0,0,0,0,.54c-.17,1-.38,2-.52,2.65a3.08,3.08,0,0,0,.27,2.35Zm-.2-24.18,1.62-1.13.76.85,0,.18Zm-.38-3.37,1.82,2-.1.07-1.8,1.27c0-.17,0-.35,0-.52C555.56,421.69,555.59,420.74,555.65,419.81Zm-1.3-2.22-10-11.13,11.18,4.4A46.67,46.67,0,0,0,554.35,417.59Zm5.29-5.13c.91,2.08,1.8,4.08,2.64,6-1,.73-2.67,1.9-4.39,3.1l-2.19-2.45a45.08,45.08,0,0,1,1.27-7.69Zm-2.53-1.55c.11-.41.22-.81.33-1.18s.28-.9.42-1.3c.5,1.14,1,2.26,1.48,3.36Zm4.94,8c-1,1.2-2.83,2-3.46,3.39h0l-.52-.58Zm-3.29,29.94h.09a3.08,3.08,0,0,0,.86-.12,7.9,7.9,0,0,0,.54,3.48c.85,1.45,3,2,4.11,3.3a5.79,5.79,0,0,1,.84,1.6l-20.76,7.55Zm5.44-1.07a8.55,8.55,0,0,0-.29-2.52,3.9,3.9,0,0,0-.42-.74c.22-.26.44-.51.65-.73a5.52,5.52,0,0,0,1-.73,2,2,0,0,0,.21-.2,5.66,5.66,0,0,0,1.58-3.05l.21-.22,3.26,1.54-2.9,4.06-.16.22-1.75,2.44Zm36.37-2.21,1.2-.2-.19,3-4.4.2A15.63,15.63,0,0,0,600.57,445.6Zm-2.1-23.17,3,.18.23,4.71a15.46,15.46,0,0,0-3-3.46Zm3.08,26.49-.19,3.19-5.25-2.06.42-.91Zm-.1,10.23,1.09.78a3.87,3.87,0,0,1-1.15.26Zm.23-3.7.16-2.61,6.12,2.41a8.51,8.51,0,0,0-2.36,1.08,4.55,4.55,0,0,0-1,1.21ZM615.4,434.4a4.93,4.93,0,0,0,.32,1.13L610,438.05l-2.37-2.68,2.94-3.24Zm-4.48-2.67,3.77-4.14a5.28,5.28,0,0,1,1.37,2.2c.28,1.26-.58,2.69-.68,4Zm-6.78,2.6.84-1.17,1.95,2.2-3,3.34c.09-.48.17-1,.22-1.47A15.63,15.63,0,0,0,604.14,434.33Zm-.93-4.1a1.8,1.8,0,0,0-.08-.21l.46-1.16.45.21Zm.09-2.07-1-.48-.24-5,3.37.2ZM603,441.71l.92-.41.19.53-1.26.2Zm.82-2.13,3.48-3.83,2.23,2.52-5.33,2.34Zm3.49-4.6-2-2.25,1.64-2.3,3.15,1.47Zm-2.94-6.33-.57-.27,2.17-5.51,2.43.14Zm1.26-6.32-3.6-.21-.21-4.32,6.14-2.25c.07.12.13.24.19.37Zm-3.73,30,.21-3.42,4.52-.2,2.26,6.15-.23.12Zm.24-3.93.19-3.07,2.88-.48,1.23,3.35Zm2.48-6.64-.24-.64,5.5-2.42,1.68,1.9Zm5.76-3.28,5.56-2.45a5.23,5.23,0,0,1,.63,2.49,3.34,3.34,0,0,1-.48,1.33l-3.93.65Zm2.82-22.68a6.15,6.15,0,0,1-.91-1.81l21.15-7.75L618.1,423.07h-.24c-.14-1.35.06-2.87-.58-4C616.42,417.63,614.24,417.09,613.17,415.78Zm.1,7-.85-.05.61-.86A3.93,3.93,0,0,1,613.27,422.79Zm.05.52a9.3,9.3,0,0,0,.31,2.73,4.46,4.46,0,0,0,.72,1.16l-3.91,4.3-3.2-1.5,4.83-6.77Zm-4.6-.79-2.58-.15,2.27-5.76a7.66,7.66,0,0,0,1,2.22,4.81,4.81,0,0,0,1.22,1Zm-2.89-13.32c-1.36-.87-2.12-2.88-3.58-3.63l15.31-13.63-7.38,18.75C608.89,410,607.06,410,605.83,409.2Zm-2.61,4.06c1.21.79,3.1.65,4.16,1.6a3.07,3.07,0,0,1,.25.26l-5.86,2.15-.29-5.91A8.4,8.4,0,0,0,603.22,413.26Zm-1.73,8.83-3.11-.18-.45-2.69,3.36-1.23Zm-3.64-3.39-1.34-8,.79-.71a5.84,5.84,0,0,1,2.75.15,2.84,2.84,0,0,1,.89.63l.32,6.7Zm-1-13.47c-1.61-.43-3-2.2-4.72-2.37a4,4,0,0,0-1.69.25l9.17-19.87,1.08,22C599.41,405.2,598,405.54,596.83,405.23Zm-14.22,16.28c-.3.13-.59.27-.88.42l.3-.65Zm-.37-.7.13-.28,1,.69h0Zm.43,29,.36.81-.46.17-.18-1.11Zm.56,1.28,2.41,5.51-1.83,1.62-1.15-6.92Zm11.27-31.2-2.35-5.38,1.58-1.4,1.11,6.65Zm.42.39.16.92-.37-.84Zm-.9-.22-1.11.41-3.69-3.34,2.53-2.26Zm-1.72.54a15.87,15.87,0,0,0-2-.33,15.52,15.52,0,0,0-2.89,0l-1-.69,2.36-2.09ZM586,419.29l-2.33-1.66,1.55-3.36,3.19,2.88Zm-2.1,31-.43.15-.15-.36C583.55,450.2,583.75,450.26,583.94,450.33Zm-.22.62,1-.37,3.81,3.47-2.5,2.23Zm2-.15c.48.09,1,.17,1.45.22a15.63,15.63,0,0,0,2.9,0l1,.74-2.18,1.93Zm5.8,1.28,2.31,1.64-1.46,3.13-3.07-2.8Zm1.83-31.15,0,0,.89-.33.35.79C594.18,421.2,593.78,421.06,593.37,420.93ZM594.53,450l.89.35-.23.49-1-.71Zm.67-.29c.22-.1.45-.21.67-.33l-.24.5Zm-3.6-41.8a3.25,3.25,0,0,1,1.33.48l.7,4.18-1.7,1.5-2.48-5.67A4.44,4.44,0,0,1,591.6,407.89Zm-.07,6.52-2.7,2.4-3.34-3,2.21-4.8a6.6,6.6,0,0,0,1.28-.42Zm-6.44-1-4.23-3.82a4.87,4.87,0,0,1,2-1.24c1.32-.29,2.84.67,4.23.69Zm1.94-9.19c-1.71.09-3.58-1.17-5.22-.81s-2.85,2.27-4.41,2.87l-.14,0-.47-.43,1.32-22.18,9,20.49Zm-7.89,6.57a5,5,0,0,0,1.33-.87l4.39,4-1.57,3.41-6.89-4.92.08-1.3A8.83,8.83,0,0,0,579.14,410.8Zm2.81,9.43-.19.39L577,418.74l-.83-1.93,0-.7Zm-3.5,2-1.2-2.79,4.3,1.69-.46,1Zm2.08.43a14.64,14.64,0,0,0-1.45,1l-.41-.95Zm-4.3-16.06c-1.37.15-2.91-.06-4,.59l-.16.1c-1.12-2.6-2.28-5.32-3.47-8.1l7.68,7Zm-4.74,41.65-2.17-.12,3.89-5.45h.08a.91.91,0,0,0,.23,0l.12.06Zm2.61-5.31,1,.48.24,5.05-3.34-.18Zm-2.27,5.85,3.56.2.21,4.41-6.11,2.22a2.48,2.48,0,0,1-.17-.37ZM575,411.39a3.37,3.37,0,0,1,1-.24l-.06.89Zm-4.82,24.89.27.61c.48,1.07.84,1.94,1.12,2.65l-.85,1.19-3.2-1.51ZM569,448.59l2.32.13L569,454.5a7,7,0,0,0-.94-2,4.74,4.74,0,0,0-1.22-1Zm-1.74,12c1.3.76,3.2.73,4.46,1.54s2.16,2.95,3.65,3.67l-15.48,13.75Zm7.07-2.51c-1.2-.78-3.1-.64-4.17-1.6a2.6,2.6,0,0,1-.38-.43l5.87-2.13.28,5.88A7.36,7.36,0,0,0,574.3,458.06Zm1.59-9.6-.22-4.63a15.67,15.67,0,0,0,3.15,3.64l.2,1.17Zm3.21.7.47,2.76-3.46,1.26-.2-4.2Zm.55,3.27,1.39,8.3-.7.61a6.23,6.23,0,0,1-2.87-.13,3.06,3.06,0,0,1-1-.78l-.32-6.72Zm1.05,13.67c1.6.42,3,2.19,4.71,2.36a4,4,0,0,0,1.72-.26l-9.38,20.21-1-22.31C578,466.15,579.47,465.77,580.7,466.1Zm5.22-2.66a3.56,3.56,0,0,1-1.33-.48l-.68-4.1,2-1.73,2.49,5.71A5.16,5.16,0,0,1,585.92,463.44Zm.34-6.67,2.67-2.37,3.24,2.94-2.32,5a6.61,6.61,0,0,0-1,.31Zm6.3.93,4.27,3.88a5.43,5.43,0,0,1-2.18,1.39c-1.31.28-2.82-.67-4.21-.69Zm3.15,10.21c1.67-.36,2.86-2.28,4.42-2.89l.36-.11.08.07-1.31,21.51-8.48-19.39C592.41,467.14,594.17,468.24,595.71,467.91Zm2.68-7.39a4.5,4.5,0,0,0-1.16.73l-4.44-4,1.48-3.19,6.68,4.77-.09,1.44A8.21,8.21,0,0,0,598.39,460.52Zm-2.78-9.4.28-.61,5.44,2.13-.15,2.45Zm9.72,13.06c1.47-.85,2-3,3.31-4.11a6.09,6.09,0,0,1,1.8-.91l7.78,21.17-17.1-15.55C602.54,464.6,604.17,464.86,605.33,464.18Zm4.24-9.89-.28.25-2.16-5.87,5.91-.27a8.68,8.68,0,0,0-1.88,1.72C610.38,451.32,610.52,453.23,609.57,454.29ZM607,448.16l-1.26-3.41,8.3-1.39.44.51a7.16,7.16,0,0,1-.12,3.08,2.91,2.91,0,0,1-.66.91Zm8.27,4.57c.91-1.41,3-2.18,3.72-3.73v0l13.54,15.34L613.78,457C614.43,455.7,614.45,453.93,615.22,452.73Zm5.79-24c-.35-1.66-2.28-2.85-2.88-4.42a1.9,1.9,0,0,1-.12-.36l.3-.33,21.62,1.28-19.73,8.68C620.28,432,621.33,430.23,621,428.71Zm38.63-50.59a91.29,91.29,0,0,1,9.6,14.42L635.2,405Zm-.33-.4L634.16,405.4l-22.08,8.09a5.7,5.7,0,0,0-1.31-2.4l-.15-.11,7.8-19.81,28.81-25.64A92.14,92.14,0,0,1,659.31,377.72Zm-26.84-22.24a91.43,91.43,0,0,1,14.36,9.72l-28,24.9Zm-.46-.24-14,35.63L601.7,405.36a3,3,0,0,0-.52-.11l-1.12-23,15.62-33.83A90.18,90.18,0,0,1,632,355.24Zm-16.84-7L600,381.12l-1.77-36.26A92.09,92.09,0,0,1,615.17,348.25Zm-17.46-3.44,1.83,37.31-9.81,21.25a13.71,13.71,0,0,1-2.13.77l-9.43-21.53,2.25-37.88A91.69,91.69,0,0,1,597.71,344.81Zm-17.82,0-2.18,36.77L563.05,348A90.69,90.69,0,0,1,579.89,344.78Zm-17.34,3.41,15.1,34.49-1.36,22.78-8.2-7.43c-7.59-17.72-16.05-37.57-18.92-44.65A90.59,90.59,0,0,1,562.55,348.19Zm-37.19-106.8a14.61,14.61,0,0,1,2.57-.28,3.76,3.76,0,0,1,1.8.34.78.78,0,0,1,.43.78,1.45,1.45,0,0,1-.26.89,2.61,2.61,0,0,1-1.43.91,9.05,9.05,0,0,1-2.68.34c-.62,0-1.29-.05-2-.12-.44-.23-.9-.45-1.39-.67l.09-.06A14.25,14.25,0,0,0,525,241.8,4.73,4.73,0,0,0,525.36,241.39Zm-1.67-1.15.24-.22.16,0,.12,0Zm-.22-2.64c.66-.45,1.22-.81,1.67-1.08-.55.68-1.23,1.43-1.67,1.89-.36-.06-.72-.1-1.09-.13A12.06,12.06,0,0,0,523.47,237.6ZM517,239.86l0,0a8.47,8.47,0,0,0,1.77-.19c.72.06,2,0,3.18.11l-1.66,1.47c-.63.21-1.28.44-1.93.69L517,241.4c0-.49-.12-.93-.14-1.13,0,0,0-.06,0-.09A.42.42,0,0,1,517,239.86Zm4.47,2.54-.73.45h0l.36-.31ZM502.13,252c-2.09-4.56-3.64-8-3.73-8.23-.21-.59-.44-.77-.66-.78h0c0-.13-.14-.36-.3-.71a1.18,1.18,0,0,0-1.14-.52,4.73,4.73,0,0,0-1.23.19c-.11-.39-.46-1.57-.66-2.21-.12-.38-.12-.46-.24-.56a.71.71,0,0,1-.31-.21.47.47,0,0,1-.14-.35.75.75,0,0,1,.15-.43.43.43,0,0,1,.33-.19h.06c.19,0,.25.19.39.43a.89.89,0,0,0,.86.47,1,1,0,0,0,.85-.39,1.39,1.39,0,0,1,1-.44,3.28,3.28,0,0,1,.52,0,2.64,2.64,0,0,1,1,.17l.24.12c.05,0,.07.05.11.06s.09.31.17.52.22.47.51.48a.67.67,0,0,0,.46-.24c.49-.49.75-.55.84-.54h0c.16.22,1,1.42,2.57,3.3a3.74,3.74,0,0,0,2.75,1.65,1.63,1.63,0,0,0,1.16-.42,2.25,2.25,0,0,0,.68-1.56,2.13,2.13,0,0,0-.41-1.26,9.88,9.88,0,0,0-2.28-2,10.55,10.55,0,0,1-1.82-1.41.41.41,0,0,1,0-.15s0,0,0,0a.38.38,0,0,1,.16,0h.09c.45.31,6.65,4.54,8.42,5.59a5.69,5.69,0,0,0,2.68.9l.12.06a49.28,49.28,0,0,0-10,5.76A30.53,30.53,0,0,0,502.13,252Zm.67,1.47a27.76,27.76,0,0,1,3.44-3.29,48.86,48.86,0,0,1,10.83-6.09h0c-2.79,2.44-6.08,5.29-8.89,7.73l-4.41,3.81Zm1.43,3.12a127.64,127.64,0,0,1,14.06-12.05l.22.08.19.06-5.71,5-8.54,7.4C504.38,256.85,504.3,256.7,504.23,256.55Zm21.18,45.93-1.21-2.79-.32-.76-.07-.17c.25-.16.3-.51.3-.95s0-.62-.06-1c-.37-2.07-3.38-8.54-3.83-9.5l.65-.29,0-.1a16.73,16.73,0,0,0-.69-2.19c-.29-.73-1.22-.87-2.07-.88a9.2,9.2,0,0,0-1.65.17c-.1-.25-.38-.93-1-2.07-.38-.73-.59-1.19-.71-1.47a2.6,2.6,0,0,1-.1-.28.72.72,0,0,0,.33-.62,2.37,2.37,0,0,0-.77-1.37L511.8,273c-1.84-4-4.47-9.67-6.91-15a123.4,123.4,0,0,1,15.21-12.93,25.64,25.64,0,0,0,3.28.64,20.22,20.22,0,0,1,6.71,4.9c2.06,2.49,2.1,4.74,3,7.21a37.29,37.29,0,0,1,1.22,6.28c1.23,8.86,2.33,23.55,2.92,29.65.56,5.75,1.83,16,2.53,21.52a14.83,14.83,0,0,0-2,.44,1.27,1.27,0,0,0-1.12,1.37,2.52,2.52,0,0,0,.15.86s1.21,2.89,2.57,6.32c.85,2.16,1.77,4.53,2.48,6.52l-1.74.73.34,2.65-.44.21-.84-.25c-.1-.26-.22-.51-.33-.78-2.51-5.76-6.27-14.41-9.4-21.63C527.83,308.08,526.42,304.83,525.41,302.48Zm18,73.21-12.12-11c1.77-1.44,3.6-2.8,5.47-4.1ZM530.9,365l13,11.8,13,29.62a40.11,40.11,0,0,0-1.27,3.9l-12.08-4.76-25.19-28.18A91.6,91.6,0,0,1,530.9,365Zm-12.79,12.78,24.46,27.37-33.92-13.37A91.17,91.17,0,0,1,518.11,377.82Zm-9.7,14.46L543.34,406l10.94,12.24c-.13,1.39-.21,2.85-.21,4.39,0,.2,0,.4,0,.6l-18.61.82-33.78-15.94A90.65,90.65,0,0,1,508.41,392.28Zm44.36,40-16.31-7.7,17.63-.78c0,.15,0,.29,0,.44l-.87.61-1.4.95-.4.27-.11.07h0a1.83,1.83,0,0,0,.54,3.58,1.72,1.72,0,0,0,.72-.15,9,9,0,0,1,1.1-.1,1.37,1.37,0,0,1,.39,0l.08,0h0a.33.33,0,0,1-.1.14,3,3,0,0,0-1.28,2.46S552.77,432.22,552.77,432.26Zm-51.23-23.61,32.83,15.49L498,425.75A91.32,91.32,0,0,1,501.54,408.65Zm-3.6,17.72v-.1l37.41-1.66,17.5,8.26a3,3,0,0,0,.77,1.38,20.88,20.88,0,0,0,2.35,2.67c0,.07-.05.14-.07.22l-20.14,9.07-37.93-2.12A92.12,92.12,0,0,1,497.94,426.37Zm-.05,18.24,36.86,2.06-33.49,15.1A90,90,0,0,1,497.89,444.61Zm3.52,17.65,34.46-15.53,20.75,1.17a3.05,3.05,0,0,0,1.52.89l-14.73,16.27L507.86,478A90.53,90.53,0,0,1,501.41,462.26Zm6.69,16.19,34.57-12.57-24.76,27.35A92,92,0,0,1,508.1,478.45Zm10.13,15.18,25.48-28.13,21.66-7.88a6.34,6.34,0,0,0,1.39,2.62l0,0-7.78,20-28.73,25.5A91.69,91.69,0,0,1,518.23,493.63Zm12.46,12.49,27.92-24.8L545.16,515.9A91.36,91.36,0,0,1,530.69,506.12Zm14.93,10,13.83-35.57L575.89,466l.3.06,1.1,23.38-15.53,33.47A90.81,90.81,0,0,1,545.62,516.15ZM562.26,523l15.08-32.51,1.68,35.9A91,91,0,0,1,562.26,523Zm17.27,3.45-1.72-37,10-21.57a10.64,10.64,0,0,1,2.42-.82l9,20.5-2.38,39A92.49,92.49,0,0,1,579.53,526.49Zm17.8.08,2.31-37.9,15.1,34.54A90.71,90.71,0,0,1,597.33,526.57Zm17.92-3.52-15.54-35.51,1.36-22.11,17.53,15.94,12.85,35A90.81,90.81,0,0,1,615.25,523.05Zm16.66-6.92-12.49-34,26.87,24.44A92,92,0,0,1,631.91,516.13Zm14.78-9.91L619,481.07,610.92,459a5.59,5.59,0,0,0,2.41-1.32,2.11,2.11,0,0,0,.19-.23l19.7,7.73,25.61,29A90.71,90.71,0,0,1,646.69,506.22Zm12.47-12.42-24.9-28.23L669,479.22A91,91,0,0,1,659.16,493.8Zm10.11-15-35.75-14-14.4-16.32c0-.09,0-.19,0-.28l23.29-1L676,462.8A90.65,90.65,0,0,1,669.27,478.76Zm6.84-16.46L643.57,447l36-1.61A92.39,92.39,0,0,1,676.11,462.3Zm-4-25h7.95q-.07,3.78-.46,7.61l-37,1.65L621,436.45a8.8,8.8,0,0,1-.76-2.33L641.06,425l38.63,2.28c.2,2.24.33,4.51.36,6.79H672.1a1.65,1.65,0,1,0,0,3.29ZM248.91,418.39a1.35,1.35,0,0,0-1,.43,9.13,9.13,0,0,1-1.14.1,8,8,0,0,1-1.14-.05l0,1.9a7.47,7.47,0,0,1,1.14-.11,8,8,0,0,1,1.14,0,1.34,1.34,0,0,0,1,.38,1.38,1.38,0,0,0,1-.42l0-1.9A1.37,1.37,0,0,0,248.91,418.39Zm8.45-.2a1.39,1.39,0,0,0-1,.43,7.56,7.56,0,0,1-1.14.1,8,8,0,0,1-1.14-.05l0,.95,0-.95a1.41,1.41,0,0,0-1-.38,1.35,1.35,0,0,0-1,.43,9,9,0,0,1-1.14.1,8,8,0,0,1-1.14-.05l0,1.9a7.47,7.47,0,0,1,1.14-.11,8.11,8.11,0,0,1,1.15.05,1.35,1.35,0,0,0,1.94,0h0a7.56,7.56,0,0,1,1.14-.1,8,8,0,0,1,1.14,0,1.38,1.38,0,0,0,1,.38,1.35,1.35,0,0,0,1-.43l0-1.89A1.33,1.33,0,0,0,257.36,418.19Zm4.22-.09a1.34,1.34,0,0,0-1,.42,7.47,7.47,0,0,1-1.14.11,9.86,9.86,0,0,1-1.14-.05l0,1.89a9.13,9.13,0,0,1,1.14-.1,8.18,8.18,0,0,1,1.15.05,1.37,1.37,0,0,0,1,.38,1.35,1.35,0,0,0,1-.43l-.05-1.89A1.33,1.33,0,0,0,261.58,418.1Zm27.52,1.58a8,8,0,0,1,1.14.05,1.33,1.33,0,0,0,1,.38,1.38,1.38,0,0,0,1-.42h0a7.47,7.47,0,0,1,1.14-.11,9.86,9.86,0,0,1,1.14.05,1.39,1.39,0,0,0,1,.39,1.41,1.41,0,0,0,1-.43h0a7.44,7.44,0,0,1,1.14-.1,8,8,0,0,1,1.14.05,1.37,1.37,0,0,0,1,.38,1.35,1.35,0,0,0,1-.43l0-1.89a1.35,1.35,0,0,0-1.94,0,7.56,7.56,0,0,1-1.14.1,8.18,8.18,0,0,1-1.15-.05l0,.95,0-.95a1.37,1.37,0,0,0-1-.38,1.35,1.35,0,0,0-1,.43,9.13,9.13,0,0,1-1.14.1,8,8,0,0,1-1.14,0l0,1.78,0-1.78a1.38,1.38,0,0,0-1-.38,1.35,1.35,0,0,0-1,.43,9.13,9.13,0,0,1-1.14.1,8.18,8.18,0,0,1-1.15-.05l0,1.9A7.47,7.47,0,0,1,289.1,419.68Zm55.3,48a7.62,7.62,0,0,1-1.11.21,1.32,1.32,0,0,0-1.84.46l.46,1.84a1.32,1.32,0,0,0,1.85-.47,10.62,10.62,0,0,1,1.08-.35,9.49,9.49,0,0,1,1.1-.21l-.48-1.84A6.89,6.89,0,0,1,344.4,467.67Zm-4,1a9.08,9.08,0,0,1-1.11.2,1.29,1.29,0,0,0-1-.17,1.35,1.35,0,0,0-.83.62l.45,1.84a1.32,1.32,0,0,0,1,.17,1.35,1.35,0,0,0,.83-.62,7.08,7.08,0,0,1,1.07-.35,9.08,9.08,0,0,1,1.11-.2l-.46-1.84A7.08,7.08,0,0,1,340.38,468.69Zm-4,1a7.38,7.38,0,0,1-1.11.19,1.29,1.29,0,0,0-1-.17,1.35,1.35,0,0,0-.83.62l.22.92-.22-.93a7.12,7.12,0,0,1-1.07.34,7.83,7.83,0,0,1-1.11.19,1.34,1.34,0,0,0-1.86.44l.44,1.84a1.32,1.32,0,0,0,1.86-.44,7.18,7.18,0,0,1,1.07-.33,7.38,7.38,0,0,1,1.11-.19h0a1.33,1.33,0,0,0,1.86-.45,8.49,8.49,0,0,1,1.07-.34,8.92,8.92,0,0,1,1.11-.19l-.45-1.84A8.49,8.49,0,0,1,336.35,469.68Zm-8.07,1.93a7.83,7.83,0,0,1-1.11.19,1.32,1.32,0,0,0-1.86.44l.44,1.84a1.29,1.29,0,0,0,1,.17,1.27,1.27,0,0,0,.83-.61,9.34,9.34,0,0,1,1.08-.33,7.38,7.38,0,0,1,1.11-.19l-.44-1.84A7.18,7.18,0,0,1,328.28,471.61Zm-4,1a6.51,6.51,0,0,1-1.11.18,1.41,1.41,0,0,0-1-.17,1.35,1.35,0,0,0-.83.62l.44,1.84a1.29,1.29,0,0,0,1,.17,1.3,1.3,0,0,0,.83-.61,8.88,8.88,0,0,1,2.19-.52l-.44-1.84A8.58,8.58,0,0,1,324.24,472.57Zm-41.76,12.76a1.35,1.35,0,0,0,.82-.63,8.26,8.26,0,0,1,1.07-.37,9.49,9.49,0,0,1,1.1-.21l-.49-1.84a8.09,8.09,0,0,1-1.06.37,7.76,7.76,0,0,1-1.1.21,1.36,1.36,0,0,0-1-.15,1.33,1.33,0,0,0-.82.64l.48,1.83A1.36,1.36,0,0,0,282.48,485.33Zm-4,1.05a1.32,1.32,0,0,0,.82-.63,8.34,8.34,0,0,1,1.07-.36,9.49,9.49,0,0,1,1.1-.21l-.48-1.83a8.16,8.16,0,0,1-1.06.36,9.24,9.24,0,0,1-1.11.21,1.29,1.29,0,0,0-1-.15,1.26,1.26,0,0,0-.82.63l.47,1.83A1.32,1.32,0,0,0,278.46,486.38Zm-10.62.42a7.62,7.62,0,0,1-1.1.2,1.34,1.34,0,0,0-1-.16,1.3,1.3,0,0,0-.83.62l.46,1.84a1.29,1.29,0,0,0,1,.17,1.36,1.36,0,0,0,.83-.63,8.49,8.49,0,0,1,1.07-.34,7.62,7.62,0,0,1,1.11-.21l-.47-1.83A8,8,0,0,1,267.84,486.8Zm-4,1a7.38,7.38,0,0,1-1.11.19,1.33,1.33,0,0,0-1-.16,1.35,1.35,0,0,0-.83.62l.45,1.84a1.33,1.33,0,0,0,1,.16,1.26,1.26,0,0,0,.83-.62,9.25,9.25,0,0,1,1.08-.34,9.08,9.08,0,0,1,1.11-.2l-.46-1.84A7.08,7.08,0,0,1,263.82,487.81Zm-4,1a8.92,8.92,0,0,1-1.11.19,1.29,1.29,0,0,0-1-.17,1.32,1.32,0,0,0-.83.62l.44,1.84a1.33,1.33,0,0,0,1.86-.45,8.49,8.49,0,0,1,1.07-.34,7.38,7.38,0,0,1,1.11-.19l-.45-1.84A8.49,8.49,0,0,1,259.79,488.8Zm-20.21,4.68a7.54,7.54,0,0,1-1.11.17,1.34,1.34,0,0,0-1-.19,1.31,1.31,0,0,0-.85.59l.4,1.86a1.34,1.34,0,0,0,1.87-.41,9,9,0,0,1,1.08-.31,7.35,7.35,0,0,1,1.11-.17l-.4-1.85A6.65,6.65,0,0,1,239.58,493.48Zm-4.06.88a7.06,7.06,0,0,1-1.11.16,1.28,1.28,0,0,0-1-.2,1.3,1.3,0,0,0-.86.59l.39,1.85a1.33,1.33,0,0,0,1.87-.39,7.89,7.89,0,0,1,1.08-.3,7.34,7.34,0,0,1,1.12-.16l-.4-1.86A7.09,7.09,0,0,1,235.52,494.36Z" transform="translate(-81.59 -81.09)"/><path class="cls-1" d="M176.84,255.2l-12.28,18.88-48-31.24,4.67-7.19,41.63,27.08,7.6-11.7Z" transform="translate(-81.59 -81.09)"/><path class="cls-1" d="M197.32,229.8l-15.18,18.29-44.09-36.62,15-18.12,5.83,4.85-9.57,11.52,12.87,10.69,8.24-9.91,5.72,4.75L168,225.16l13.83,11.49L191.49,225Z" transform="translate(-81.59 -81.09)"/><path class="cls-1" d="M187.84,169.61,181,176.1l34.19,36.12-6.2,5.86L174.78,182l-6.86,6.49-5.21-5.5,19.92-18.86Z" transform="translate(-81.59 -81.09)"/><path class="cls-1" d="M237.83,133.75l-8,5.1,26.85,41.86-7.19,4.61-26.85-41.86-7.95,5.1-4.09-6.38,23.09-14.81Z" transform="translate(-81.59 -81.09)"/><path class="cls-1" d="M297.84,159.32,290,163l-11-23.24-10.5,4.95,11,23.25-7.75,3.66L247.31,119.8l7.75-3.66,10.09,21.36,10.49-4.95-10.08-21.36,7.81-3.69Z" transform="translate(-81.59 -81.09)"/><path class="cls-1" d="M330.4,148.32l-22.62,7.29-17.57-54.55,22.41-7.22,2.33,7.22-14.26,4.59,5.13,15.93,12.27-4,2.28,7.07-12.27,4,5.51,17.12,14.47-4.66Z" transform="translate(-81.59 -81.09)"/><path class="cls-1" d="M387.41,138.71l-8.44,1-3-10.6-10.66,1.24-.45,11-8.4,1,0-.14L360.84,84l8.94-1Zm-13.47-16.78-7.16-25.2-1.17,26.17Z" transform="translate(-81.59 -81.09)"/><path class="cls-1" d="M424.77,128.18a10.48,10.48,0,0,1-3.17,7.87,11.23,11.23,0,0,1-8.15,2.7L396,138.39l1.18-57.3,17.47.36a11.14,11.14,0,0,1,8,3.08,10.6,10.6,0,0,1,2.84,8Zm-8.58-1.6.69-32.92q.09-4.8-4.92-4.9l-6.37-.13-.88,42.58,6.15.13Q416.1,131.45,416.19,126.58Z" transform="translate(-81.59 -81.09)"/><path class="cls-1" d="M472.1,87.88l-19.87,54.94-8.43-1.34L442,83.09l8.5,1.35.15,39.81c-.13,1.12-.31,2.75-.55,4.89.15-1.12.48-2.72,1-4.82l12.54-37.79Z" transform="translate(-81.59 -81.09)"/><path class="cls-1" d="M494.25,153.29l-22.81-6.68,16.11-55,22.6,6.62L508,105.5l-14.38-4.21-4.7,16.07L501.31,121l-2.09,7.13-12.37-3.62-5.05,17.26L496.38,146Z" transform="translate(-81.59 -81.09)"/><path class="cls-1" d="M529.92,168.17l-6.88-3,2-38.55a22.43,22.43,0,0,1-1.17,4L511,159.83l-7.64-3.36L526.44,104l6.87,3-1.68,37.88a21.62,21.62,0,0,1,1.17-4l12.57-28.55,7.65,3.36Z" transform="translate(-81.59 -81.09)"/><path class="cls-1" d="M586.32,143.58l-8.09-4.88-25.71,42.57-7.3-4.41,25.71-42.57-8.09-4.89,3.92-6.49,23.48,14.18Z" transform="translate(-81.59 -81.09)"/><path class="cls-1" d="M593,204.54q-3.27,4.1-7.39.81L571.38,194q-4.07-3.25-.8-7.34L603,146l6.7,5.34L578.6,190.35l9,7.19,31.14-39.06,6.7,5.34Z" transform="translate(-81.59 -81.09)"/><path class="cls-1" d="M617.73,237.19l-6.14-6.49,12.85-25.16,3.75-3.55,5.79,6.12,13.19-12.48-7.42-7.85-36.29,34.33-5.89-6.22,41.64-39.39L654.83,193q3.55,3.75-.28,7.37l-15.13,14.32c-1.76,1.67-3.46,2.14-5.09,1.44a17.64,17.64,0,0,1-4.23-3.66Z" transform="translate(-81.59 -81.09)"/><path class="cls-1" d="M637.26,263.51l-14-19.22,46.35-33.71,13.85,19-6.13,4.46L668.54,222,655,231.82l7.58,10.42-6,4.37L649,236.19l-14.54,10.58,8.93,12.29Z" transform="translate(-81.59 -81.09)"/><path class="cls-1" d="M296,623.84a9.25,9.25,0,0,1-1.52,5.68c-1,1.34-3,2-5.84,2,2.77,0,4.67.61,5.68,1.84a6.28,6.28,0,0,1,1.52,4.08v24.72q0,3.45.08,6.24c.05,1.87.08,3.44.08,4.72v2.56a13.37,13.37,0,0,1-1.2,5.76q-1.2,2.56-6.16,2.56h-44.8V566.88h44.8a9.08,9.08,0,0,1,4,.72,5.35,5.35,0,0,1,2.16,1.84,6.82,6.82,0,0,1,1,2.64,19.91,19.91,0,0,1,.24,3.12Zm1.12,13a4.53,4.53,0,0,1,2.4,2.24,7,7,0,0,1,.64,2.88v24.64c0,2.24,0,4.3.08,6.16s.08,3.44.08,4.72V680a19.91,19.91,0,0,1-.24,3.12,7.53,7.53,0,0,1-1,2.72,5.09,5.09,0,0,1-2.16,1.92,9.08,9.08,0,0,1-4,.72h-44.8v-2.72h42.08a9.63,9.63,0,0,0,4.08-.72,5.22,5.22,0,0,0,2.24-1.84,6.7,6.7,0,0,0,1-2.64,19.91,19.91,0,0,0,.24-3.12v-2.56c0-1.28,0-2.85-.08-4.72s-.08-3.92-.08-6.16V639.36A7.29,7.29,0,0,0,297.12,636.8Zm-35-15.84h12.16c1.49,0,2.43-.29,2.8-.88a5.79,5.79,0,0,0,.56-3V590.88a5.84,5.84,0,0,0-.56-3c-.37-.59-1.31-.88-2.8-.88H262.08Zm15.52,20a5.84,5.84,0,0,0-.56-3c-.37-.58-1.31-.88-2.8-.88H262.08V664.8h12.16c1.49,0,2.43-.29,2.8-.88a5.82,5.82,0,0,0,.56-3l.16-17.12v4.32Zm-2.72-52v2.56h-8.16v27.84h-2.56V589Zm0,50.08v2.56h-8.16v21.6h-2.56V639Zm25.44-10.72q0,5-2.88,6.56a8.18,8.18,0,0,0-.8-1.52,8.89,8.89,0,0,0-1.12-1.36q2.24-1.75,2.24-6.4V577a20,20,0,0,0-.16-2.56A9,9,0,0,0,297,572a5,5,0,0,1,2.8,3.2,17.34,17.34,0,0,1,.56,4.48Z" transform="translate(-81.59 -81.09)"/><path class="cls-1" d="M367.84,684H315.68V566.88h52.16V587H333.92V621H355v16.16H333.92V664.8h33.92Zm1.92-14.72h2.56v19.2H320.16v-2.72h49.6Zm2.56-97.92v20.16H338.56v26.4H336V589h33.76v-17.6Zm-12.8,54.08V641.6h-21v21.6H336V639h21v-13.6Z" transform="translate(-81.59 -81.09)"/><path class="cls-1" d="M421.76,603.68v-12.8a5.26,5.26,0,0,0-.64-3c-.43-.59-1.39-.88-2.88-.88h-9c-1.49,0-2.43.29-2.8.88a5.74,5.74,0,0,0-.56,3v69a5.71,5.71,0,0,0,.56,3c.37.59,1.31.88,2.8.88h9c1.49,0,2.45-.29,2.88-.88a5.23,5.23,0,0,0,.64-3V643.68a5.23,5.23,0,0,0-.64-3c-.43-.59-1.39-.88-2.88-.88h-5.6V619.68h19.84a9.08,9.08,0,0,1,4,.72,5.64,5.64,0,0,1,2.24,1.92,6.63,6.63,0,0,1,1,2.63,18.42,18.42,0,0,1,.24,3V675.7a12.69,12.69,0,0,1-1.28,5.75q-1.28,2.55-6.24,2.55H395a9.08,9.08,0,0,1-4-.72,5.09,5.09,0,0,1-2.16-1.92,7.47,7.47,0,0,1-1-2.64,18.45,18.45,0,0,1-.24-3V575.2a19.91,19.91,0,0,1,.24-3.12,6.82,6.82,0,0,1,1-2.64A5.35,5.35,0,0,1,391,567.6a9.08,9.08,0,0,1,4-.72h37.44a9.08,9.08,0,0,1,4,.72,6,6,0,0,1,2.24,1.84,6.18,6.18,0,0,1,1,2.64,19.91,19.91,0,0,1,.24,3.12v28.48ZM441,624.92a4.55,4.55,0,0,1,2.8,3,17.32,17.32,0,0,1,.56,4.47V680a19.91,19.91,0,0,1-.24,3.12,7.48,7.48,0,0,1-1,2.71,5.09,5.09,0,0,1-2.16,1.92,9.08,9.08,0,0,1-4,.72H399.52a8.28,8.28,0,0,1-4.4-1,5.38,5.38,0,0,1-2.16-2.4,9.48,9.48,0,0,0,4,.64H434.4a9.08,9.08,0,0,0,4-.72,5.33,5.33,0,0,0,2.16-1.83,6.82,6.82,0,0,0,1-2.64,19.88,19.88,0,0,0,.24-3.11V629.87a20.11,20.11,0,0,0-.16-2.56A8.86,8.86,0,0,0,441,624.92ZM419.2,589v2.56h-5.6c-1.49,0-2.43.3-2.8.88a5.82,5.82,0,0,0-.56,3v65h-2.4V592.8a6,6,0,0,1,.53-3c.34-.59,1.23-.88,2.67-.88Zm.48,55.36H415.2v-2.56h4.64ZM441,572a5,5,0,0,1,2.8,3.2,17.34,17.34,0,0,1,.56,4.48v28.48H426.08V605.6h15.68V577a20,20,0,0,0-.16-2.56A9,9,0,0,0,441,572Z" transform="translate(-81.59 -81.09)"/><path class="cls-1" d="M458.72,685.12V566.88h18.56V685.12ZM479,686.88H463.2v2.72h18.4V571.36H479Z" transform="translate(-81.59 -81.09)"/><path class="cls-1" d="M551.84,566.56V684H533.6l-19.2-62.72V684H496.16V566.56H514.4l19.2,62.72V566.56ZM516.32,632.8q.45,2.4,1,4.8c.4,1.6.85,3.15,1.35,4.64v46.24H500.64v-2.72h15.68Zm15.2-14.4L517.12,571h1.76l12.64,41.6ZM556.16,571V688.48H537.91l-.79-2.72h16.5V571Z" transform="translate(-81.59 -81.09)"/><path class="cls-1" d="M223.72,570v21h-139v2h141V570Zm0,115.09H155.88v2h69.86v-23h-2Zm0-47.06H122.21v2H225.74v-23h-2Zm-1.13-71.19h-141v23h141Zm0,94.12H152.72v23h69.87Zm0-47.06H119.05v23H222.59Z" transform="translate(-81.59 -81.09)"/><path class="cls-1" d="M574.26,570v23h141v-2h-139V570Zm2,94.12h-2v23h69.87v-2H576.28Zm0-47.07h-2v23H677.79v-2H576.28Zm1.13-27.21h141v-23h-141Zm0,94.12h69.87V661H577.41Zm0-47.06H681v-23H577.41Z" transform="translate(-81.59 -81.09)"/></svg>