<svg id="Layer_1" data-name="Layer 1" xmlns="http://www.w3.org/2000/svg" viewBox="0 0 738.66 417.44"><title>BikeLogo</title><path d="M766.45,379.22l.39-5.06-3-1.09c0-.21,0-.42,0-.63l3-3.09,0-5.08-3.1-.86,0-.64,2.75-3.28-.33-5.07-3.14-.65c0-.21-.05-.43-.08-.64l2.51-3.46-.69-5-3.17-.42c0-.22-.09-.43-.13-.65l2.26-3.62-1-5-3.2-.19c-.06-.22-.11-.43-.17-.64l2-3.77-1.39-4.89-3.21,0-.21-.61,1.72-3.91-1.72-4.77-3.21.26c-.09-.2-.17-.4-.25-.59l1.44-4-2.06-4.65-3.19.49c-.1-.18-.19-.37-.28-.56l1.16-4.13-2.39-4.49-3.16.71c-.1-.17-.21-.34-.31-.52l.87-4.22-2.7-4.3-3.11.93c-.11-.16-.23-.32-.34-.49l.57-4.29-3-4.1-3,1.16c-.12-.16-.25-.31-.37-.46l.27-4.32-3.28-3.89-3,1.37c-.13-.15-.27-.29-.4-.43l0-4.33-3.54-3.64-2.85,1.57-.44-.41-.34-4.31-3.79-3.38L713,262.94l-.48-.38-.64-4.26-4-3.11-2.59,1.94-.5-.35-.94-4.2-4.23-2.81-2.44,2.12-.53-.32-1.24-4.11L691,245l-2.28,2.28-.56-.28-1.53-4L682,240.75l-2.11,2.44-.58-.25-1.8-3.89-4.73-1.86-1.93,2.59-.59-.2-2.08-3.77-4.84-1.52L661.61,237l-.58-.15-2.35-3.63-4.94-1.17-1.56,2.85-.58-.1L649,231.35l-5-.83-1.36,3-.57-.06-2.86-3.28-5.05-.47-1,2.78-2.77-2.8-5.08-.15-1,3.12h-.59l-3.26-2.86-5.07.21-.73,3.16-.6.06-3.43-2.61-5.05.57-.5,3.19-.61.1-3.6-2.35-5,.92-.28,3.22-.6.15-3.76-2.1-4.91,1.28,0,3.23-.59.19-3.89-1.83-2.62.88a21,21,0,0,0-4.65-10.56c-2.11-2.65-3.78-3.86-5.16-4.33-.26-2-.59-4.67-1-7.56-.79-6.44-1.71-14.12-2.19-19S565,182.05,564.09,173c-.45-4.53-.94-8.93-1.44-12.56a46.74,46.74,0,0,0-1.58-8c-1-2.57-1.09-5.81-3.94-9.28a22.38,22.38,0,0,0-5.57-4.65,10,10,0,0,0,3.79-.88A4.42,4.42,0,0,0,557,136.2a3.6,3.6,0,0,0,.63-2.11,2.77,2.77,0,0,0-1.42-2.5,6.22,6.22,0,0,0-3.09-.66,18.31,18.31,0,0,0-2.54.22,1.64,1.64,0,0,0-.5-.8,2.79,2.79,0,0,0-.46-.33c.45-.48.94-1.05,1.41-1.61a17.36,17.36,0,0,0,1-1.41,4.3,4.3,0,0,0,.37-.65,2,2,0,0,0,.19-.77,1.13,1.13,0,0,0-.35-.83,1.21,1.21,0,0,0-.81-.29,4.17,4.17,0,0,0-1.81.64c-.74.4-1.71,1-3,1.88a14.77,14.77,0,0,1-3.08,1.64,2.33,2.33,0,0,0,.41-1.17c0-.82-1-1.9-1.88-2.85s-1.84-1.69-1.84-1.69l-8.42-9.46-5.07-4.72-5.26-4.92a.2.2,0,0,1,0-.14,2.62,2.62,0,0,1,.76-1.46.77.77,0,0,0,.23-.55,1.88,1.88,0,0,0-.59-1.14,28.17,28.17,0,0,0-1.74-2.25,1.44,1.44,0,0,0-1.09-.47H519a1.53,1.53,0,0,1-.05-.47V97l-.06-.05s-2-1.8-2.65-2.22a.56.56,0,0,0-.31-.09c-.39,0-.65.35-.86.65a3.63,3.63,0,0,0-.3.54,1.28,1.28,0,0,1-.33,0,.43.43,0,0,1-.34-.12,2.78,2.78,0,0,0-1.19-.39c-.4-.06-.76-.09-.85-.1l-2.36-.89c-.6-.23-1.21-.46-1.68-.66l-.59-.25-.17-.09-.05,0h0a6.37,6.37,0,0,0-4.33-1.67c-1.2,0-4.36.48-5.61,3.2a9.31,9.31,0,0,0-.86,3.88,10.35,10.35,0,0,0,.83,4c1,2.26,4.56,2.88,5.43,3l-.07.21c-.34,0-1.36-.1-2.38-.1a8.48,8.48,0,0,0-2.11.19c-1.25.39-4.46,2.09-4.68,4.89,0,.25,0,.48,0,.7a5,5,0,0,0,1.4,3.88c.14.14.16.23.16.26s0,.09-.14.13a.64.64,0,0,1-.2.06c-2.71.51-3,2-2.95,2.34v.11l.54,1.29-.16.12a9,9,0,0,1-.88.48,2,2,0,0,0-1.23,2,6.17,6.17,0,0,0,.19,1.4c.32,1.31,1.81,1.57,3,1.57a10.13,10.13,0,0,0,1.72-.16l2,4.67-1.29.9a2.84,2.84,0,0,0-.81,4,2.41,2.41,0,0,0,2.13.83,8.67,8.67,0,0,0,1.69-.19l1.2,4c-1.39.86-1.64,1.42-1.63,2,0,.19,0,.35,0,.52,0,.6.39.89.35,1s0,.1-.13.22-2.52,1.72-4.74,3.15l-4.41,2.82L482,153.06c-13.29,7.15-40.67,21.86-47,25-8.5,4.25-50.68,27.56-69.62,37.75-17.95,9.65-36.84,13.23-46.92,13.22-.54,0-1.06,0-1.55,0-9.59-.41-11.64-4.38-12.92-6.45-.62-1-2.74-5.64-4.69-10-1.74-3.9-3.35-7.59-3.68-8.33a1.05,1.05,0,0,0,.49-.95,2.14,2.14,0,0,0-.15-.75s-1.27-3.39-1.59-4.12a1.12,1.12,0,0,0-1.1-.56,2,2,0,0,0-.48.05L267.5,129.6c.31-.19,1.2-.72,2.11-1.36,1.14-.8,2.32-1.69,2.54-2.38a2,2,0,0,0,.09-.57,2.23,2.23,0,0,0-.67-1.51v-.3c1.87-.07,3.36-1.18,9.86-5.87,6.69-4.82,8.81-5.16,10.79-5.17s16.5,1.39,18.37,1.86a5.24,5.24,0,0,0,1.19.15,2.56,2.56,0,0,0,1.49-.4,1.63,1.63,0,0,0,.68-1.43,6.21,6.21,0,0,0-.95-2.85c-2.46-4.39-9-6.12-15.4-7.09a47.76,47.76,0,0,0-6.88-.45A163.43,163.43,0,0,0,270.17,104,248,248,0,0,1,239,105.65c-5.38,0-19-3.39-21.42-3.71a6.64,6.64,0,0,0-.77,0,3,3,0,0,0-2.63,1.3c-.66,1-1,2.53-1,5,0,.28,0,.58,0,.88.2,6.28,2.31,7,2.91,7h.08c.81,0,5.88.07,8.3,2.5,1.64,1.62,5,1.91,7.52,1.91,1.43,0,2.56-.1,2.86-.13l4.9,4.91a5.38,5.38,0,0,0,3.64,1.9h5.29a5.79,5.79,0,0,0,.48,1.76c.59,1.21,3.09,1.51,4.73,1.9a4.58,4.58,0,0,1,2.17,1.75,14.09,14.09,0,0,1,1,1.5l25,68c-.39.14-1.47.53-2.43.93s-2.59,1.55-2.61,3.28a3.09,3.09,0,0,0,.3,1.29c.61,1.32,2.1,1.6,3.31,1.6a8.93,8.93,0,0,0,1.79-.19l.16.32L311.49,286l-23.71,11.25-.3-.54-3.15.76-.32-.51.8-4.24-2.76-4.26-3.09,1-.35-.48.5-4.3-3.05-4.05-3,1.2c-.12-.16-.25-.31-.38-.46l.2-4.32-3.33-3.83-2.93,1.41-.41-.43-.11-4.33-3.59-3.58-2.83,1.61-.44-.4-.41-4.3L255,259.83l-2.69,1.81-.22-.17-.26-.21-.71-4.25L247,254l-2.56,2c-.16-.12-.33-.23-.5-.34l-1-4.19-4.27-2.75-2.41,2.16-.27-.16-.27-.15-1.3-4.1L230,244l-2.24,2.32-.57-.27-1.58-4L221,239.92l-2.07,2.47h0l-.59-.23-1.86-3.87-4.75-1.79-1.89,2.62h0l-.59-.19-2.14-3.73-4.87-1.45-1.71,2.75-.59-.14h0l-2.4-3.59-4.95-1.1L191,234.55l-.58-.09h0L187.78,231l-5-.75-1.32,3h-.05l-.52-.05L178,230l-5.06-.39-1,2.8-2.82-2.77-5.08-.06-.9,3.13-.59,0h0l-3.3-2.81-5.07.29-.68,3.17-.59.07-3.48-2.57-5,.65-.45,3.21h0l-.61.11h0l-3.63-2.31-5,1-.22,3.22h0l-.61.15-3.78-2-4.9,1.35v3.23h0l-.59.2-3.92-1.77-4.79,1.7.23,3.23-.56.23-4-1.49-4.65,2,.46,3.21h0l-.18.09-.36.18-4.15-1.2-4.5,2.35.69,3.18-.51.3-4.24-.9-4.32,2.66.91,3.13h0l-.23.17-.24.16-4.3-.61-4.13,3,1.14,3.07-.45.36-4.34-.31-3.9,3.25,1.34,3h0l-.42.39H70.77l-3.66,3.51,1.55,2.87h0l-.4.42-4.33.31-3.41,3.77,1.75,2.74-.38.46-4.28.62-3.14,4,1.93,2.61c-.12.16-.24.33-.35.5h0l-4.21.9L49,295.91l2.1,2.46c-.11.17-.21.35-.32.53l-4.13,1.2-2.54,4.4,1.13,1.15,1.14,1.14c-.1.19-.2.38-.29.57l-4,1.48-2.22,4.57,2.41,2.12c-.08.2-.17.4-.25.59l-3.9,1.77-1,2.35-.95,2.36,2.57,1.95-.21.6-3.76,2L33.23,332l2.71,1.77c-.06.2-.11.41-.17.61l-3.62,2.3-1.21,4.94,2.82,1.57c0,.2-.07.4-.11.6h0l-3.46,2.57-.87,5,2.94,1.38h0c0,.2,0,.4-.07.6l-3.28,2.8-.51,5.06,3,1.17,0,.6-3.07,3-.15,5.08,3.09.95c0,.2,0,.41,0,.62l-2.84,3.22.21,5.08,3.14.72.06.64-2.6,3.4.57,5,3.17.5h0c0,.21.07.43.1.65l-2.33,3.56.92,5,3.19.27.15.66L33,405.12,34.22,410l3.2.05c.06.21.13.42.2.64l-1.81,3.84,1.62,4.82,3.19-.18.25.61-1.54,4,2,4.69h0l3.18-.4c.09.19.19.39.28.59l-1.25,4.07,2.28,4.54,3.15-.63.16.28.16.28h0l-1,4.17,2.59,4.36,3.11-.85.35.53-.66,4.23,2.89,4.17,3-1.07.39.5-.37,4.27,3.18,4,3-1.28.42.47h0L66.13,465l3.45,3.72,2.86-1.49.46.45.23,4.27,3.71,3.47,2.74-1.68.5.42.54,4.23,3.94,3.2,2.6-1.86.54.39.83,4.17,4.16,2.91,2.45-2,.58.36,1.13,4.09,4.35,2.61,2.3-2.2.61.33,1.41,4,4.52,2.3,2.14-2.35.64.28,1.67,3.87,4.68,2,2-2.49.65.23,1.95,3.75,4.81,1.63,1.78-2.63.67.18,2.21,3.61,4.91,1.29,1.6-2.76.66.14,2.47,3.45,5,.94,1.41-2.88.33.05.32,0,2.72,3.28,5,.59,1.21-3,.32,0,.33,0,2.94,3.08,5.08.23,1-3.05h.66l3.15,2.86,5.07-.12.77-3.1h0l.68-.05,3.33,2.62,5.05-.49.55-3.13.34-.05.35,0L192,507l5-.84.33-3.16.69-.15,3.64,2.11,4.93-1.19.1-3.17.67-.2,3.79,1.85,4.84-1.54-.13-3.17.66-.25,3.91,1.58,4.71-1.87-.35-3.17.63-.28,4,1.3,4.57-2.21-.57-3.14.3-.16.29-.16,4.12,1,4.41-2.52-.8-3.11.55-.35,4.2.72,4.22-2.82-1-3,.52-.39,4.24.43,4-3.11-1.23-3,.49-.43,4.27.13,3.78-3.39-1.44-2.87.46-.46,4.26-.17,3.53-3.65-1.63-2.76.43-.5,4.23-.46,3.27-3.9L277,451.91c.14-.17.27-.35.41-.53h0l4.18-.77,3-4.11-2-2.49.37-.57h0l4.1-1.06,2.69-4.31-2.17-2.34h0l.17-.3c.05-.1.11-.2.17-.3l4-1.34,2.37-4.49L292,427.12c.1-.2.2-.41.29-.62l3.91-1.62,2-4.65-2-1.63a9.17,9.17,0,0,1,1.14-.18l-.33-1.36.33,1.36a1.58,1.58,0,0,0,1.24.21,1.62,1.62,0,0,0,1-.74,9.55,9.55,0,0,1,1.3-.41,10,10,0,0,1,1.35-.23l-.53-2.24a8.52,8.52,0,0,1-1.31.4l-.6.13,1.66-4.63-2.61-1.84c.06-.21.13-.42.19-.64l3.66-2.16,1.37-4.89L301.77,400h.07a44.18,44.18,0,0,0,10.63-1.06c.91-.24,1.91-.56,3-.93a7.06,7.06,0,0,0-.07.78l-.13,1,1-.24c.52,0,1.08-.4,1.58,0s.27,1,.36,1.54v1.05l1-.36c.51-.09,1-.52,1.57-.18s.4,1,.55,1.49l.12,1,.93-.48c.5-.15,1-.64,1.54-.37s.51.93.72,1.41l.24,1,.87-.58c.48-.21.87-.76,1.49-.56s.62.87.88,1.32l.37,1,.79-.68c.45-.27.77-.85,1.41-.73s.72.78,1,1.2l.26.5a1.6,1.6,0,0,0-.77.68l.59,2.23a1.61,1.61,0,0,0,2.25-.6,9.37,9.37,0,0,1,1.3-.44,10.77,10.77,0,0,1,1.34-.28l-.4-1.44h0l.4,1.44a1.66,1.66,0,0,0,1.26.16,1.6,1.6,0,0,0,1-.8,9.9,9.9,0,0,1,1.29-.47,11.35,11.35,0,0,1,1.34-.31h0a1.69,1.69,0,0,0,1.27.13,1.61,1.61,0,0,0,1-.83,9.46,9.46,0,0,1,1.28-.51,9.58,9.58,0,0,1,1.33-.36l0,0,0,0a1.66,1.66,0,0,0,1.28.07,1.64,1.64,0,0,0,.93-.88c.36-.19.79-.39,1.26-.59l.36-.14.33.18,0-.31.59-.18-.41-.95.41.95a1.68,1.68,0,0,0,1.3,0,1.66,1.66,0,0,0,.87-1c.34-.23.75-.48,1.2-.75s.9-.47,1.28-.67l-1.17-1.77,1.17,1.77a1.6,1.6,0,0,0,1.32-.33,1.62,1.62,0,0,0,.66-1.21c.27-.33.61-.7,1-1.11s.69-.77,1-1.06l-.37-.27h0l.37.27a1.64,1.64,0,0,0,1.12-.73,1.68,1.68,0,0,0,.25-1.31c.15-.35.33-.76.55-1.18h.19l-.08-.21c.21-.43.45-.82.64-1.15h0a1.64,1.64,0,0,0,.93-.93,1.72,1.72,0,0,0,.09-.89l.4,0-.42-.83c.07-.29.16-.59.25-.92s.25-.73.37-1c4.79.46,12.37,1.26,19.82,2.06l5.21.56c-1.05.81-1.6,1.54-.84,1.92,1.91,1,6.23,7.32,6,8.32s-.23,2.4.62,1.79,5.36-5.76,6.2-6.31,3-2.23,4-2.32,1.72-1.18,2.1-1.61a.19.19,0,0,0,0-.09A6.63,6.63,0,0,0,413.2,388a.85.85,0,0,1,0-.17l2.68-1.93a24.14,24.14,0,0,0,3.34-1.61c1.86-1.22,8.33-4.4,6.42-5.38s-6.23-7.32-6-8.31.22-2.4-.62-1.8-5.37,5.77-6.2,6.31-3,2.23-4,2.33-1.72,1.17-2.1,1.61a1.41,1.41,0,0,0-.12.63h-.08l-31.48-5.13a55.6,55.6,0,0,0,8.58-5.48c4.35-3.47,18.09-23.75,18.1-23.76l39.48-59.53,2.4-3.58c10.74-16,54-80.34,59.36-87.78,4.56-6.39,8.89-7.14,10.72-7.15a5.56,5.56,0,0,1,.81.06c0,2.95,1.95,3.48,2,3.49h.07a1.69,1.69,0,0,1,.37,0c.39,0,.78.08.79.68,0,2.86,2.07,5.23,3,6.16a1.32,1.32,0,0,0,1,.37c1,0,2.32-.73,3.75-.72.38,0,1.07.51,1.8,1.38a60.09,60.09,0,0,1,5.7,9.19,1.71,1.71,0,0,0,1.5,1.13,1.52,1.52,0,0,0,.55-.11l18.45,41.73-2.9,1.73.86,3.15-.48.32-4.29-.67-4.17,2.9,1.09,3.07-.46.36-4.33-.37-4,3.19,1.3,3-.43.38-4.34-.06L527.69,271l1.51,2.89-.41.42-4.33.24L521,278.24l1.7,2.77-.39.46L518,282l-3.2,3.95,1.89,2.63-.37.5-4.22.84-2.91,4.17,2.07,2.48c-.12.18-.23.35-.33.53l-4.15,1.14-2.61,4.36,2.23,2.32-.3.57-4,1.42-2.29,4.53,2.38,2.16-.26.59L498,315.9l-2,4.68,2.53,2c-.07.19-.14.39-.22.59l-3.79,2L492.91,330l2.68,1.81c-.06.2-.12.4-.17.61l-3.66,2.24-1.29,4.92,2.8,1.62-.12.6-3.5,2.51-.94,5,2.92,1.42-.09.6L488.22,354l-.59,5,3,1.21,0,.61-3.12,3-.23,5.07,3.08,1v.62l-2.89,3.18.13,5.08,3.13.77c0,.21,0,.43.05.64l-2.65,3.36.49,5.06,3.16.54c0,.22.06.44.1.66l-2.4,3.52.85,5,3.18.32.15.65L491.51,403,492.7,408l3.2.1c.06.22.13.43.19.64l-1.87,3.82,1.55,4.84,3.2-.13c.07.21.15.41.23.62l-1.59,3.94,1.88,4.72,3.18-.35c.09.19.19.39.28.59l-1.31,4.06,2.21,4.57,3.16-.58.31.56-1,4.15,2.53,4.41,3.12-.81.34.54-.73,4.22,2.83,4.21,3.06-1,.38.51-.43,4.26,3.12,4,3-1.24.42.48-.13,4.28,3.39,3.78,2.88-1.44.45.45.18,4.27,3.65,3.53,2.76-1.64.5.43.47,4.24,3.89,3.26,2.63-1.82.54.4.76,4.18,4.12,3,2.48-2,.58.37,1.06,4.1,4.31,2.68,2.33-2.16.61.33,1.34,4,4.49,2.37,2.17-2.32.64.29,1.62,3.89,4.64,2.05,2-2.47.65.25,1.89,3.77,4.78,1.71,1.83-2.6.66.19,2.15,3.64,4.89,1.37,1.65-2.74.65.15,2.42,3.49,5,1,1.45-2.86.65.1,2.67,3.32,5,.67,1.25-3,.65.05,2.9,3.13,5.07.31,1-3h.66l3.11,2.91,5.08,0,.81-3.08.68,0,3.29,2.67,5.06-.41.59-3.12.7-.09,3.45,2.42,5-.77.37-3.14.69-.15,3.61,2.17,5-1.12.15-3.16.67-.19,3.76,1.9L673,501.4l-.08-3.17.66-.24,3.89,1.64,4.74-1.8-.3-3.17.63-.28,4,1.36,4.61-2.13-.53-3.15.6-.32,4.1,1.09,4.45-2.46-.75-3.11.56-.35,4.18.79,4.26-2.76-1-3.06.53-.38,4.23.5,4.06-3.06-1.19-3,.5-.41,4.27.19,3.82-3.33-1.39-2.9c.16-.14.31-.3.47-.45l4.26-.1,3.59-3.6L728.64,461l.44-.49,4.24-.41,3.32-3.84-1.78-2.66.41-.52,4.19-.71,3-4.06-2-2.52.38-.57,4.12-1,2.75-4.27-2.13-2.37.35-.6,4-1.27,2.43-4.46L750.18,429l.3-.62,3.93-1.57,2.12-4.61-2.44-2.05.25-.63,3.82-1.84,1.78-4.75-2.58-1.88c.06-.21.13-.42.2-.63l3.69-2.11,1.44-4.87-2.72-1.7.15-.63,3.54-2.38,1.1-4.95-2.85-1.51c0-.2.07-.41.1-.62L765.4,389l.75-5-3-1.3.06-.62ZM276.88,347.41l-.28,0,0,2.3.65-.08q.63,3.56,1.05,7.17l-45.7-2,9.56-4.38a11.77,11.77,0,0,1,1.25.06,1.64,1.64,0,0,0,1.19.47,1.66,1.66,0,0,0,1.17-.52l0-1.65h0l0,1.65a9.14,9.14,0,0,1,1.39-.13,10,10,0,0,1,1.39.06,1.62,1.62,0,0,0,1.19.47,1.67,1.67,0,0,0,1.17-.52h0a10.63,10.63,0,0,1,1.38-.13,9.88,9.88,0,0,1,1.39.06,1.67,1.67,0,0,0,2.37-.05h0a10.63,10.63,0,0,1,1.38-.13,9.84,9.84,0,0,1,1.39.07,1.69,1.69,0,0,0,1.19.46,1.64,1.64,0,0,0,1.17-.52l-.05-2.31a1.69,1.69,0,0,0-1.19-.46,1.66,1.66,0,0,0-1.17.52,10.92,10.92,0,0,1-1.39.12,10,10,0,0,1-1.39-.06l0,1.16,0-1.16a1.69,1.69,0,0,0-1.19-.46,1.66,1.66,0,0,0-1.17.52,10.76,10.76,0,0,1-1.39.12,10,10,0,0,1-1.39-.06l0,2.17,0-2.17a1.67,1.67,0,0,0-2.36.06,10.75,10.75,0,0,1-1.38.12h-.06l26.8-12.28A111.36,111.36,0,0,1,276.88,347.41Zm-3.17-12.14-28,12.82a1.68,1.68,0,0,0-2.35.06,9.13,9.13,0,0,1-1.38.13,10,10,0,0,1-1.39-.06l.05,2.19h0l-.05-2.19a1.68,1.68,0,0,0-2.36,0,9.27,9.27,0,0,1-1.39.13,10,10,0,0,1-1.39-.06l0,2.16,0-2.16a1.6,1.6,0,0,0-1.19-.46,1.63,1.63,0,0,0-1.17.51,9.27,9.27,0,0,1-1.39.13,10,10,0,0,1-1.39-.06l.05,2.3a10.92,10.92,0,0,1,1.39-.12,10,10,0,0,1,1.39.06,1.67,1.67,0,0,0,2.36-.06h0a9.27,9.27,0,0,1,1.39-.13,10,10,0,0,1,1.39.06,1.62,1.62,0,0,0,1,.45l-8.06,3.69-27-1.18,2-2.31a9,9,0,0,1,1.22.07,1.69,1.69,0,0,0,1.19.46,1.66,1.66,0,0,0,1.17-.52l0-2.3a1.65,1.65,0,0,0-.78-.42c16-6.94,36-15.94,53.29-23.74l6.14-2.77A109.5,109.5,0,0,1,273.71,335.27ZM207.9,371.82l3.92.66,20.47,9.22-23.44,1.41-3.64-.69a12.59,12.59,0,0,1-.05-3.82c.49-2,2.62-3.69,2.8-5.77A3.79,3.79,0,0,0,207.9,371.82Zm6.37,1.08,42.93,7.31-23.57,1.41ZM255.2,392l-35.28-6.8-8.57-1.65,22.16-1.33Zm-59.42-50.51a5.93,5.93,0,0,0-1.48-2.45l-.17-.14,1-2.72,3.29.6c1.71.3,3.51.6,5.29.87Zm2.64,65.4,6.23,16.21-9.16-8.08C196.36,412.93,197.45,409.68,198.42,406.92Zm-11.81,6.59.94.62h0l-.94-.62a9.46,9.46,0,0,1-.66,1.15,9.12,9.12,0,0,1-.8,1.06,1.51,1.51,0,0,0-1,.67,1.54,1.54,0,0,0-.2,1.21l1.93,1.25a1.52,1.52,0,0,0,.8-.4,22.16,22.16,0,0,1-4.16,9l.17-3.69a9.79,9.79,0,0,1,.6-.8l-.54-.33h0l.54.33a1.52,1.52,0,0,0,1.18-1.89,9.71,9.71,0,0,1,.63-1.15,8.11,8.11,0,0,1,.79-1.06l-1.94-1.25a10,10,0,0,1-.64,1.16c-.14.22-.28.42-.42.61l.65-14,4.69,4.14c-.07.66-.16,1.36-.25,2l-.11.12a1.51,1.51,0,0,0-1,.66A1.5,1.5,0,0,0,186.61,413.51Zm-5.3,8.23.8.5h0l-.8-.5a9.68,9.68,0,0,1-.62,1.17,8.56,8.56,0,0,1-.77,1.09,1.57,1.57,0,0,0-1,.72l0,.07L171,407.55c2,0,4.14,1.32,6,.89s3.43-2.82,5.32-3.58a3.26,3.26,0,0,1,.44-.15l.1.08-.69,15.13a1.47,1.47,0,0,0-.73.6A1.51,1.51,0,0,0,181.31,421.74Zm-11.2-93.59,10.08-22.74,1.58,24.52-1.07,0a13.74,13.74,0,0,1-3.52-.32c-1.17-.37-1.69-1.88-4.31-1.88A11.54,11.54,0,0,0,170.11,328.15Zm13.51,76.44.09-.06c1.25-.17,2.62-.08,3.81-.35a2.54,2.54,0,0,1,.75,1.45,5.65,5.65,0,0,1,.09,1.26c0,.53,0,1.15-.08,1.8Zm3.73-75.3h0l14.87-13.64-7,18.73-3.06-.59c.25-.81.46-1.47.56-1.82a.91.91,0,0,0,0-.23c0-.74-.91-1.29-2-1.73A9.64,9.64,0,0,0,187.35,329.29Zm4.22,6.23,3,.57-.94,2.5a11.36,11.36,0,0,0-2.72-.83C191.09,337.06,191.33,336.28,191.57,335.52Zm13.14,15.84h0c.21,0,.45-.06.7-.09l-2,2.23h-.29c-.06-.55-.08-1.12-.11-1.68a2.08,2.08,0,0,0,.5.07A1.66,1.66,0,0,0,204.71,351.36Zm0-1h0l0,.91Zm-.62-1.7a1.72,1.72,0,0,0-.6-.1,1.7,1.7,0,0,0-1,.34,2,2,0,0,0-.13-.25l-.16-.23,9.29-4.1-1.6,1.82C207.9,347,206,347.89,204.07,348.69Zm-3.58,40.94c1.08-1.74,3.65-2.71,4.45-4.62,0,0,0,0,0,0l16.74,18.41-21.58-8.09a10.85,10.85,0,0,0-.85-1.66A15.72,15.72,0,0,1,200.49,389.63Zm6.59-29.33c-.46-2-2.82-3.42-3.58-5.32a3.12,3.12,0,0,1-.15-.43l.36-.41L230,355.3l-23.84,10.92C206.26,364.26,207.51,362.15,207.08,360.3Zm60.26-40.58.33.66c-17.57,7.92-39,17.6-56.42,25.2l1.61-1.83Zm-5.72-10.07-19.51,9.27-9.28,4.56-3.7,1.81,24-27.23A110.82,110.82,0,0,1,261.62,309.65Zm-20.94-24.24a112.38,112.38,0,0,1,12,12.17l-25,28.43c-6.15,3-13.6,6.65-21,10.26-2.57-.35-5.33-.79-7.88-1.24l-2.95-.54,7.44-19.79L237.79,283C238.77,283.77,239.73,284.59,240.68,285.41ZM235.23,281l2.07,1.62L203.73,313.4,219.66,271A111.37,111.37,0,0,1,235.23,281ZM211.57,267.2q1.81.78,3.6,1.62c1.32.62,2.63,1.26,3.92,1.93L202.7,314.34l-16.49,15.13a20.92,20.92,0,0,1-3.82.44l-1.65-25.73,18.37-41.43A109.63,109.63,0,0,1,211.57,267.2Zm-13.08-4.63-17.84,40.25-2.83-44.06A111.13,111.13,0,0,1,198.49,262.57Zm-39.75-3.88c2.59-.21,5.21-.34,7.84-.37q5.26-.06,10.61.38h0l2.91,45.35-10.77,24.32-.39.11a2.58,2.58,0,0,0-1.93,2.25,8,8,0,0,1-1,.32l-11.86-26,2-46.1Q157.45,258.79,158.74,258.69ZM154.2,408.8c.21-.43.2-.63.64-.64a1.48,1.48,0,0,1,.34,0,28.65,28.65,0,0,0,3.09.64.83.83,0,0,0,.45-.1.43.43,0,0,0,.21-.38c0-.24,0-.44,0-.58s0-.21.15-.29a2.74,2.74,0,0,1,1.1-.14l.37,0c1.3.8,2.57,1.86,4,2a5,5,0,0,0,2.09-.35l-11,24.76-1.54-24.67A1,1,0,0,0,154.2,408.8Zm-.57-74.94-.16.05-.59-.51,1.19-27,11.29,24.76h-.05c-2.08.15-4.38-1.35-6.37-.89S155.52,333.09,153.63,333.86Zm-13.55-72A109.75,109.75,0,0,1,155.52,259l-2,44.76-18.46-40.48Q137.57,262.5,140.08,261.86Zm-18.6,6.66a109.43,109.43,0,0,1,13-5h0l19,41.66-1.22,27.73-21.54-18.92-16-42Q118,270.11,121.48,268.52ZM150.33,408l-16.66,15.25,8.61-23.19c1.59.91,3.9.83,5.45,1.79a11,11,0,0,1,2.38,2.51,4.25,4.25,0,0,0-.21,1.35A6.78,6.78,0,0,0,150.33,408Zm-3-73c-1.76,1.06-2.37,3.74-3.95,5.06a7.78,7.78,0,0,1-2.24,1.16l-9.93-26,21,18.48,0,.54C150.55,334.41,148.67,334.18,147.32,335ZM99.37,282.08a109.14,109.14,0,0,1,11.55-8c1.07-.64,2.14-1.27,3.23-1.87l15.57,40.81L96.8,284.15C97.65,283.44,98.5,282.75,99.37,282.08Zm-3.05,2.47h0l33.87,29.75,10.35,27.14a6.75,6.75,0,0,0-2.83,1.62l0,0-25.12-9.45L81.4,299.84A111.75,111.75,0,0,1,96.32,284.55Zm32,83.23-24.14-10.94,26.57-1.59c0,1.59.45,3.37.08,4.87-.49,2-2.61,3.7-2.79,5.77A4.6,4.6,0,0,0,128.33,367.78Zm1.47,4.28c.15,2.07-1.34,4.36-.88,6.36s2.83,3.42,3.59,5.31a3,3,0,0,1,.12.32l-.26.29-27.27-1.11,24.65-11.56C129.77,371.8,129.79,371.93,129.8,372.06Zm-16.29-37.39,23.8,9c-.9,1.58-.83,3.9-1.79,5.46-1.09,1.73-3.65,2.72-4.46,4.62h0ZM132.65,385h.18c.23,1.7,0,3.66.8,5.06,1.06,1.75,3.74,2.37,5.06,3.94a6.76,6.76,0,0,1,1.05,1.93l-25.1,9.56ZM81,300.33l30.26,32.83-41.5-15.62A111.17,111.17,0,0,1,81,300.33Zm-19.4,37.2q1.07-3.57,2.35-7a111.43,111.43,0,0,1,5.52-12.41l42.74,16.08,18.64,20.23,0,.21L103,356.28,61.6,337.53ZM59,348.37q1-5.21,2.47-10.24l40.21,18.23L57.45,359C57.78,355.4,58.29,351.85,59,348.37Zm-2,23H67.59a2,2,0,0,0,0-4H57q.06-3.78.4-7.61a.49.49,0,0,1,0-.12h0l45.46-2.71,25.79,11.69a25.77,25.77,0,0,1,1,2.44l-25.86,12.13L57.59,381.3C57.23,378,57,374.71,57,371.37Zm.68,10.56,44.87,1.83-40.45,19A110,110,0,0,1,57.65,381.93Zm4.61,21.41,41.62-19.53,28,1.14-18.45,21-43,16.38A111,111,0,0,1,62.26,403.34Zm8.45,19.55h0L112.51,407,82.9,440.69A110.77,110.77,0,0,1,70.71,422.89Zm12.6,18.28,30.45-34.68,26.2-10a7.5,7.5,0,0,0,1.75,3.15s0,0,0,0l-9.09,24.48L98.19,455.73A111.9,111.9,0,0,1,83.31,441.17Zm15.38,14.95,33.49-30.67-15.71,42.3A111.25,111.25,0,0,1,98.69,456.12ZM117,468l16.15-43.51,17.41-15.95a2.15,2.15,0,0,0,1.76,1.28l.22,0a2.62,2.62,0,0,0,.89-.26L155,435l-18.25,41A109.72,109.72,0,0,1,117,468Zm20.36,8.08h0l17.73-39.82,2.71,43.63A112.17,112.17,0,0,1,137.4,476.12Zm42.08,3.7q-5.14.54-10.41.58c-.87,0-1.75,0-2.63,0q-4-.06-8-.4l-2.79-44.93,11.76-26.42a13,13,0,0,1,2.93-1l8.38,18.4a10.78,10.78,0,0,1-1.29,2.26,1.54,1.54,0,0,0-1,.78,1.5,1.5,0,0,0-.09,1.24l1.95,1h0l-1.95-1c-.13.37-.3.81-.51,1.27s-.43.87-.63,1.23a1.57,1.57,0,0,0-.86,1.06,2,2,0,0,0,0,1.2c-1.46,1.47-2.49,2.55-2.58,2.65a2.82,2.82,0,0,0-1.2,1.94,1.52,1.52,0,0,0,.28.87c.43.63.4,1,.73,1.39s.93.61,2.55,1c1.78.37,4.64,1,6.87,1.54l-1.62,35.43Zm.63-.07,1.61-35.22,2.55.59.09.51a1.63,1.63,0,0,0,1.24.27,1.6,1.6,0,0,0,.87-.46,5.19,5.19,0,0,0,1.07-.15l13.69,30A110,110,0,0,1,180.11,479.75Zm36.59-10.59a110.49,110.49,0,0,1-14.87,6l-13.69-30a5.29,5.29,0,0,0,.75-.38l.45,0,0-.25,0,.25a1.68,1.68,0,0,0,1.24.26,1.66,1.66,0,0,0,1-.72,10.29,10.29,0,0,1,1.32-.36,11,11,0,0,1,1.36-.19l-.47-2.25a10.76,10.76,0,0,1-1.32.36,9.16,9.16,0,0,1-1.35.18l-.21-.11a1.56,1.56,0,0,0,0-.35v-.06l.23,0h.12a.91.91,0,0,0,.91-.91.49.49,0,0,0,0-.12l-.17-1.52v-.11a1.44,1.44,0,0,1,.65-1.16l1.33-.76a.89.89,0,0,0,.48-.78,1,1,0,0,0-.26-.64l-1-1.13a1.43,1.43,0,0,1-.32-.92,1.26,1.26,0,0,1,.1-.49l.63-1.39a1.06,1.06,0,0,0,.09-.42.88.88,0,0,0-.74-.87l-1.5-.31a1.44,1.44,0,0,1-1-1l-.31-1.5a.93.93,0,0,0-.38-.6c1.86-3.82,4.32-8.83,5.24-10.78l.18-.41,9.91,8.73,5,13a1.76,1.76,0,0,0-.51,0,1.61,1.61,0,0,0-1,.73h0a8.57,8.57,0,0,1-1.31.39,9.75,9.75,0,0,1-1.35.21,1.63,1.63,0,0,0-1.24-.23,1.66,1.66,0,0,0-1,.73l.5,2.26a1.62,1.62,0,0,0,1.24.22,1.57,1.57,0,0,0,1-.73,9.86,9.86,0,0,1,1.31-.39,9.65,9.65,0,0,1,1.36-.21l-.26-1.12.26,1.12a1.62,1.62,0,0,0,2.07-.26l10.21,26.52C219.87,467.57,218.29,468.38,216.7,469.16Zm-4.46-31.69a9.29,9.29,0,0,1-1.32.22l-4.77-12.41L218.3,436a9.13,9.13,0,0,1-1.14.34,8.55,8.55,0,0,1-1.35.22,1.62,1.62,0,0,0-1.24-.21,1.6,1.6,0,0,0-1,.74h0A9.86,9.86,0,0,1,212.24,437.47ZM222,466.41l-10.23-26.59c.3-.1.62-.2,1-.28a9.87,9.87,0,0,1,1.36-.21l-.26-1.13.26,1.13a1.63,1.63,0,0,0,2.26-.53,8.52,8.52,0,0,1,1.31-.4,8.37,8.37,0,0,1,1.35-.22h0a1.64,1.64,0,0,0,1.25.22,1.69,1.69,0,0,0,.51-.23l18.54,16.33A111.36,111.36,0,0,1,222,466.41Zm23.25-17.26c-1.77,1.7-3.58,3.35-5.46,4.94L221.2,437.72s0-.05.05-.08a10.2,10.2,0,0,1,2.66-.64l-.54-2.24a9.55,9.55,0,0,1-1.3.41,10,10,0,0,1-1.35.23,1.62,1.62,0,0,0-1.24-.22,1.68,1.68,0,0,0-.72.39L205.66,424l-6.93-18c.57-1.58,1.07-2.93,1.45-3.68a7.3,7.3,0,0,0,.7-3.24,10,10,0,0,0-.49-3l22.22,8.34,22.66,24.9h-.06a1.6,1.6,0,0,0-2.24.58l.28,1.11-.28-1.12a8.61,8.61,0,0,1-1.3.43,8.7,8.7,0,0,1-1.35.25,1.61,1.61,0,0,0-1.24-.19,1.63,1.63,0,0,0-1,.76l.57,2.23a1.59,1.59,0,0,0,1.25.2,1.63,1.63,0,0,0,1-.77,9.49,9.49,0,0,1,1.3-.42,8.7,8.7,0,0,1,1.35-.25h0a1.61,1.61,0,0,0,2.25-.58,9.8,9.8,0,0,1,1.16-.39l7.35,8.08A110.62,110.62,0,0,1,245.22,449.15ZM263,426.82l-.33-1.26.34,1.26Zm1.59-2.71a1.62,1.62,0,0,0-1.13-.12,1.65,1.65,0,0,0-1,.78h0a10.91,10.91,0,0,1-1.3.44,12,12,0,0,1-1.34.26,1.59,1.59,0,0,0-1.25-.18,1.63,1.63,0,0,0-1,.78l.59,2.22a1.59,1.59,0,0,0,1.25.18,1.67,1.67,0,0,0,1-.77,7.74,7.74,0,0,1,1.29-.44,8.53,8.53,0,0,1,1.18-.24c-.63,1-1.27,2-1.92,3q-3,4.5-6.31,8.69L247.64,431c.28-.05.55-.1.79-.12l-.58-2.24a9.21,9.21,0,0,1-1.29.44l-.56.12-22.11-24.31,42.53,15.95C265.84,421.93,265.25,423,264.63,424.11Zm6.92-14.59a109.45,109.45,0,0,1-4.84,10.75L223,403.88l-17.82-19.59a1.86,1.86,0,0,0,0-.34l4.86-.29,2.2.42,7.6,1.46,36.6,7,18.08,8.14Q273.22,405.22,271.55,409.52Zm4.19-13.22c-.32,1.29-.66,2.56-1,3.82l-15.58-7,16.6,3.19Zm.08-.3-17.94-3.46-23-10.37,25.06-1.5,18.19,3.09A113.49,113.49,0,0,1,275.82,396Zm2.33-12.55-16.83-2.86,17.25-1Q278.39,381.52,278.15,383.45Zm.48-4.53-20,1.2-45.49-7.74-5.92-2.67a10.58,10.58,0,0,1-1-2.82l25.17-11.54,47,2.06A111.8,111.8,0,0,1,278.63,378.92Zm37.07-80.87,2.51,5.86-.35,0c-.71,0-1.4,0-2.07,0a50.48,50.48,0,0,0-9.73,1c-1.23.24-2.26.48-3,.66a9.51,9.51,0,0,1-1.47.27,2.15,2.15,0,0,0-.66.13c-.86.26-2.5.92-4.9,1.94-.65.27-1.36.57-2.11.9l-.26-.57-.13-.29ZM321,312.84l-.08-.11a3,3,0,0,0-.41-.44,1.54,1.54,0,0,0-1-.43,1.1,1.1,0,0,0-.78.36,22.2,22.2,0,0,0-4.63,6.27,4.44,4.44,0,0,0-.41,1.88c0,2.12,1.41,4.05,2,5.14a3,3,0,0,0,1.52,1.27,4.38,4.38,0,0,0,1,.29l.18,0-5.73,19.47-.18,0,0,.59h0l0-.59-.11-.09a1.65,1.65,0,0,0-1.08-.37,1.67,1.67,0,0,0-1.17.52,10.75,10.75,0,0,1-1.38.12,9.88,9.88,0,0,1-1.39-.06l.05,2.31a9.14,9.14,0,0,1,1.39-.13,10,10,0,0,1,1.39.06,1.64,1.64,0,0,0,1.19.47l.14,0-3.94,13.4v-.63l-3.11-.82c0-.21,0-.42,0-.64l2.7-3.32-.4-5.06-3.16-.6c0-.21-.05-.43-.08-.64l1.42-2h.15a1.64,1.64,0,0,0,1.19.47,1.67,1.67,0,0,0,1.17-.52l-.05-2.31a1.69,1.69,0,0,0-1.2-.46,1.42,1.42,0,0,0-.42.07l-.57-3.75-3.18-.37c-.05-.22-.09-.43-.14-.65l2.2-3.65L303,332.91l-3.2-.15-.18-.64,1.93-3.79-1.46-4.87-3.21.08c-.07-.2-.14-.41-.22-.61l1.66-3.93-1.8-4.75-3.2.31-.26-.59,1.18-3.45c1.52-.66,2.85-1.23,3.95-1.68s1.89-.77,2.5-1l.72-.24.18-.05h0a10.13,10.13,0,0,0,1.82-.31,52.62,52.62,0,0,1,12.37-1.57c.92,0,1.87,0,2.86.08l.36,0,2.86,6.68Zm11.05-61.14a31.74,31.74,0,0,1,4.44-3.42c2.88-1.69,22.47-11.28,24.11-12.12l32.1-16.5a23.48,23.48,0,0,1,2.25-1.23,10.63,10.63,0,0,1,4.12-1.21,1.83,1.83,0,0,1,1.85,1,28.22,28.22,0,0,1,1.92,4.59,3.75,3.75,0,0,1-.79.06,25.62,25.62,0,0,1-3.19-.26,12.22,12.22,0,0,0-1.68-.14,4,4,0,0,0-3.18,1.35l-3.31,3.32a1.75,1.75,0,0,0-1.06,1.8,3.46,3.46,0,0,0,0,.43,4.83,4.83,0,0,1,.07.72.72.72,0,0,1-.28.62c-.23.24-.62.57-1.23,1.18-.77.77-2.87,2.49-4.77,4-1.69,1.36-3.23,2.57-3.54,2.81a4.85,4.85,0,0,0-.76-.06,3.91,3.91,0,0,0-2.82,1.13c-.74.75-3.08,2.77-5.22,4.59s-4.1,3.46-4.11,3.47-.74.46-.76,1.13a.76.76,0,0,0,.16.46,3.41,3.41,0,0,0-.58,1.7,1.38,1.38,0,0,0,.28.88c-.13.1-.34.26-.55.45a1.85,1.85,0,0,0-.74,1.18.72.72,0,0,0,.11.37l-16.8,13.3a2.06,2.06,0,0,0-.83,1.3.78.78,0,0,0,.07.33l-2.19,2.19v.06a1,1,0,0,1-.05.23c0,.11-.1.17-.2.17h-.09c-.31-.08-1,0-1.73-.1a3.16,3.16,0,0,1-1.91-.63c-.42-.42-2.87-4.08-5.18-7.59s-4.5-6.92-4.51-6.92l-1.65-2.58C330.15,253.5,331,252.67,332.08,251.7ZM326,279.58c-.2-.41-.83-1.69-1.46-3.19A17.06,17.06,0,0,1,323,271.2a51.14,51.14,0,0,0-.32-5.32v-.38a4.14,4.14,0,0,1,.08-1,1,1,0,0,1,.12-.36c.05-.08.09-.1.12-.1l.34,0c.07,0,.12,0,.35.26s.58.73,1.2,1.58l.13-.09-.13.09s.88,1.16,1.8,2.45a19.81,19.81,0,0,1,2,3.29,21,21,0,0,1,.32,3.71c0,1.27,0,2.43,0,2.77Zm11.75,116.8-8.63-.83-.9-2.08c.24-.46.51-.93.81-1.43,2.76-1.36,4.7-2.38,4.87-2.48l1.84-.59,5.14,2.82Zm43.36-51.63a5,5,0,0,0-2.09-.55,2,2,0,0,0-1.92,1.1,2.94,2.94,0,0,0-.38,1.38,2.55,2.55,0,0,0,.31,1.18,2.18,2.18,0,0,1,.28.58s0,0,0,.06c-.45.44-2.54,3.5-9.72,4.25a37,37,0,0,1-3.74.25c-5,0-8.45-2-13.29-12.57-3-6.52-6.61-15.41-9.5-22.66-1-2.44-1.85-4.69-2.6-6.6.86.42,1.72.87,2.6,1.36,7.39,4.08,13.42,8.12,19.2,11.17s11.35,5.11,17.72,5.11A36.75,36.75,0,0,0,391.62,326a2,2,0,0,0-.05.44,1.27,1.27,0,0,0,.72,1.17Zm-35.29-31.58a129.68,129.68,0,0,1,15.73,9.17l-.47-.24C356.48,319.66,351.58,316.5,345.85,313.17ZM477.79,193.06c-1.35,2.19-21.55,33.49-41.41,64.24l-39.3,60.85a1.69,1.69,0,0,0-.53-.08,2.14,2.14,0,0,0-1.86,1.31c-.41.77-1,2-1.55,3.18a39,39,0,0,1-15.24,3.59,24,24,0,0,1-14.37-4.64c-8.94-6.44-20.57-11.89-26.71-14.57l-.77-2,4.85-18.14a6,6,0,0,0,3-4.8,3.21,3.21,0,0,1,.43-.79,3.08,3.08,0,0,1,1.52-1.16,11,11,0,0,0,5.8-3.06c.53-.53.77-.62.91-.62a5.35,5.35,0,0,0,.64.12,2.92,2.92,0,0,0,1.61-.72c2.23-1.57,15.6-12.5,16.66-13.36a3.7,3.7,0,0,0,1,.16,1,1,0,0,0,.7-.22l.47-.47a1.63,1.63,0,0,0,.9.3,1.18,1.18,0,0,0,.8-.3,2.17,2.17,0,0,0,1.32.69.83.83,0,0,0,.59-.24c.31-.32,3.11-2.52,5.81-4.63l5.28-4.09a2.77,2.77,0,0,0,.38,0,.73.73,0,0,0,.25,0,.29.29,0,0,0,.18-.19.75.75,0,0,0,.09-.39c0-.2,0-.41,0-.61a.68.68,0,0,1,.14-.5c.17-.18,2.63-2.27,5-4.31l4.75-4s0,0,.06-.06a1.56,1.56,0,0,1,1-.32,2.59,2.59,0,0,1,.52.06,6.07,6.07,0,0,1,1.36.41,3.23,3.23,0,0,1,.43.24l1.45,1.27h0a1.09,1.09,0,0,0,.53.13.85.85,0,0,0,.63-.26c.22-.21,1.07-1.21,1.89-2.17l1.09-1.31.35-.44c0-.06.08-.1.1-.14v0c.12,0,.53,0,.95-.1a2.74,2.74,0,0,0,1.52-.67c.8-.8,2.67-2.25,2.68-2.26a1.67,1.67,0,0,0,.69-1.21,1.22,1.22,0,0,0-.2-.65,24.84,24.84,0,0,0-1.61-2.16v-1l-.09,0a2.29,2.29,0,0,1-.31-.17l-.21-.13s0,0,0,0a5.79,5.79,0,0,1,.7-.66.33.33,0,0,0,.08-.22,1.92,1.92,0,0,0-.42-.92,1.22,1.22,0,0,0-.84-.61c-.11,0-.09,0-.11-.15a1.24,1.24,0,0,1,.29-.72c.27-.28,17.76-20.57,23.55-25.65s13.6-11.51,16.93-13.43l18.23-10.5a15.35,15.35,0,0,1,2-1.27,9.15,9.15,0,0,1,4.1-1.26,3.53,3.53,0,0,1,3.46,2.45,12.69,12.69,0,0,1,1.09,4.92C481,187.58,479.62,190.11,477.79,193.06ZM733.49,337.5a110.11,110.11,0,0,1,4.13,21L692,355.78Zm-.18-.6-42.73,18.79-27-1.59,19.09-21,42.62-15.61A111.65,111.65,0,0,1,733.31,336.9Zm-66.7,34.26,24.57,11.53-27.07,1.21c0-1.55-.39-3.28,0-4.73.52-1.95,2.68-3.66,2.89-5.73A5.22,5.22,0,0,0,666.61,371.16Zm-79.08,12.43L564,382.27l22.94-10.34a7.31,7.31,0,0,0-.13,1.33,6.83,6.83,0,0,0,1,3.59,3.64,3.64,0,0,0,0,.66c-.21,1.24-.47,2.39-.63,3.22a3.57,3.57,0,0,0,.33,2.86Zm-.25-29.41,2-1.38.93,1a1.7,1.7,0,0,0,0,.22Zm-.46-4.1,2.21,2.48-.12.09-2.2,1.54v-.63C586.71,352.37,586.75,351.2,586.82,350.08Zm-1.58-2.7-12.1-13.54,13.6,5.36A56.33,56.33,0,0,0,585.24,347.38Zm6.43-6.24c1.11,2.52,2.19,5,3.21,7.29l-5.33,3.77-2.67-3a54.42,54.42,0,0,1,1.55-9.35Zm-3.08-1.89c.13-.5.27-1,.41-1.44s.34-1.08.5-1.57c.61,1.38,1.22,2.74,1.81,4.09Zm6,9.77c-1.22,1.46-3.44,2.4-4.2,4.13h0l-.64-.71Zm-4,36.41h.1a4,4,0,0,0,1-.15c.08,1.48,0,3,.66,4.23,1,1.77,3.7,2.42,5,4a6.69,6.69,0,0,1,1,1.95l-25.24,9.17Zm6.61-1.3a9.82,9.82,0,0,0-.35-3.06,4.81,4.81,0,0,0-.5-.91c.26-.31.53-.61.78-.87a7.41,7.41,0,0,0,1.24-.9,2.77,2.77,0,0,0,.25-.24,6.83,6.83,0,0,0,1.92-3.71l.25-.27,4,1.87L601.24,381l-.2.28-2.12,3Zm44.24-2.68,1.46-.24-.22,3.64-5.36.24A18.79,18.79,0,0,0,641.45,381.45Zm-2.55-28.18,3.7.22.28,5.72a18.57,18.57,0,0,0-3.7-4.21Zm3.75,32.21-.24,3.88-6.39-2.5.52-1.11Zm-.13,12.44,1.33.95a4.62,4.62,0,0,1-1.4.33Zm.28-4.49.19-3.17,7.45,2.92a10.69,10.69,0,0,0-2.88,1.31,6.32,6.32,0,0,0-1.2,1.48Zm16.69-25.61a5.92,5.92,0,0,0,.38,1.38l-7,3.07L650,369l3.58-3.95Zm-5.44-3.24,4.57-5a6.41,6.41,0,0,1,1.68,2.66c.33,1.54-.72,3.28-.83,4.91Zm-8.25,3.16,1-1.43,2.37,2.69-3.69,4.06c.11-.59.21-1.18.27-1.79A19.85,19.85,0,0,0,645.8,367.74Zm-1.13-5a2.77,2.77,0,0,1-.1-.26l.55-1.41.55.26Zm.11-2.52-1.26-.58-.29-6.13,4.09.24Zm-.41,16.48,1.11-.49.24.64-1.53.25Zm1-2.59,4.23-4.65,2.71,3.06-6.47,2.85Zm4.24-5.59-2.42-2.74,2-2.8,3.82,1.8Zm-3.57-7.7-.69-.33,2.64-6.7,3,.18Zm1.53-7.68-4.38-.26-.25-5.25,7.47-2.74c.08.14.16.29.23.44ZM643,389.61l.26-4.16,5.49-.25,2.75,7.49a2.44,2.44,0,0,1-.28.14Zm.29-4.79.23-3.72,3.51-.59,1.5,4.08Zm3-8.07-.29-.78,6.69-2.94,2,2.31Zm7-4,6.77-3a6.58,6.58,0,0,1,.77,3,4.13,4.13,0,0,1-.59,1.62l-4.78.79Zm3.44-27.58a7.34,7.34,0,0,1-1.11-2.2l25.73-9.43-18.63,20.5-.29,0c-.16-1.64.08-3.49-.71-4.83C660.74,347.43,658.07,346.77,656.78,345.18Zm.12,8.52-1-.06.74-1A4.45,4.45,0,0,1,656.9,353.7Zm.06.63a11.58,11.58,0,0,0,.37,3.33,5.84,5.84,0,0,0,.88,1.4l-4.76,5.24-3.89-1.82,5.88-8.24Zm-5.59-.95-3.14-.19,2.76-7a9.24,9.24,0,0,0,1.24,2.69,5.71,5.71,0,0,0,1.48,1.21Zm-3.52-16.2c-1.65-1.07-2.58-3.51-4.36-4.42l18.63-16.58-9,22.81C651.57,338.14,649.35,338.15,647.85,337.18Zm-3.17,4.93c1.46,1,3.77.79,5.06,1.95a2.2,2.2,0,0,1,.3.31L642.91,347l-.35-7.18A10.06,10.06,0,0,0,644.68,342.11Zm-2.11,10.75-3.78-.23-.54-3.27,4.08-1.5Zm-4.43-4.13L636.51,339l1-.86a7.13,7.13,0,0,1,3.34.18,3.78,3.78,0,0,1,1.08.76l.4,8.16Zm-1.24-16.39c-1.95-.51-3.65-2.67-5.73-2.88a5,5,0,0,0-2.07.31l11.16-24.17,1.31,26.74C640,332.31,638.34,332.72,636.9,332.34Zm-17.29,19.81c-.37.15-.73.33-1.08.51l.37-.79Zm-.45-.85.16-.34,1.16.83h0Zm.52,35.32.44,1-.56.2-.22-1.34Zm.68,1.55,2.94,6.7-2.23,2-1.4-8.42Zm13.71-37.95-2.86-6.53,1.92-1.71,1.35,8.09Zm.51.48.19,1.12-.45-1Zm-1.09-.26-1.36.49-4.49-4.07,3.09-2.74Zm-2.1.65a20.55,20.55,0,0,0-2.39-.41,18.83,18.83,0,0,0-3.52,0l-1.16-.83,2.86-2.55Zm-7.6-1.64-2.84-2,1.89-4.08,3.87,3.51Zm-2.56,37.75-.52.19-.19-.44ZM621,388l1.23-.45,4.65,4.22-3.05,2.71Zm2.46-.19a16.56,16.56,0,0,0,1.76.27,18.83,18.83,0,0,0,3.52,0l1.26.9-2.65,2.35Zm7.06,1.56,2.79,2-1.76,3.81-3.74-3.4Zm2.22-37.89,0,0,1.08-.39.42,1C633.68,351.78,633.2,351.6,632.7,351.44Zm1.41,35.33,1.08.43-.28.6-1.21-.87Zm.8-.35c.28-.12.55-.26.82-.4l-.28.61Zm-4.36-50.84a4,4,0,0,1,1.61.58l.85,5.08L631,343.08l-3-6.91A5.59,5.59,0,0,1,630.55,335.58Zm-.09,7.93-3.29,2.93-4.06-3.69,2.69-5.83a8,8,0,0,0,1.55-.51Zm-7.84-1.2-5.14-4.65a6,6,0,0,1,2.45-1.51c1.61-.35,3.46.82,5.15.84ZM625,331.12c-2.08.12-4.36-1.41-6.35-1s-3.46,2.77-5.36,3.5l-.16.06-.58-.53,1.6-27L625,331.12Zm-9.6,8a5.84,5.84,0,0,0,1.63-1.06l5.34,4.84-1.92,4.15-8.37-6,.09-1.58A10.85,10.85,0,0,0,615.38,339.12Zm3.42,11.47-.22.48-5.83-2.3c-.33-.76-.66-1.54-1-2.34l0-.85ZM614.55,353c-.45-1.06-.94-2.2-1.46-3.4l5.22,2.06-.55,1.2Zm2.52.51a19.49,19.49,0,0,0-1.76,1.26l-.49-1.16ZM611.85,334c-1.67.19-3.55-.07-4.91.72l-.19.12L602.53,325l9.35,8.47Zm-5.77,50.67-2.64-.15,4.74-6.64h.1l.28,0,.14.07Zm3.18-6.47,1.25.59.29,6.14-4.07-.23Zm-2.76,7.12,4.33.24.25,5.37-7.43,2.7a4.54,4.54,0,0,1-.21-.45Zm3.84-45.44a4.44,4.44,0,0,1,1.18-.3l-.07,1.1Zm-5.87,30.27.34.75c.58,1.29,1,2.35,1.36,3.22l-1,1.44-3.9-1.84Zm-1.46,15,2.83.16-2.73,7a8.16,8.16,0,0,0-1.16-2.45,5.63,5.63,0,0,0-1.47-1.2Zm-2.11,14.58c1.58.92,3.89.88,5.42,1.87,1.69,1.09,2.63,3.58,4.45,4.47l-18.83,16.71Zm8.61-3.06c-1.47-.94-3.78-.78-5.08-1.94a3.37,3.37,0,0,1-.46-.53l7.14-2.59.33,7.15A8.84,8.84,0,0,0,609.51,396.6Zm1.92-11.67-.26-5.64a18.87,18.87,0,0,0,3.83,4.43l.24,1.42Zm3.91.84.56,3.36-4.2,1.53-.24-5.11Zm.67,4,1.68,10.09-.84.74a7.64,7.64,0,0,1-3.49-.16,3.92,3.92,0,0,1-1.25-.95l-.38-8.17Zm1.28,16.62c2,.51,3.65,2.66,5.72,2.88a5.05,5.05,0,0,0,2.09-.32l-11.4,24.58-1.27-27.14C614,406.44,615.79,406,617.29,406.38Zm6.34-3.23a4.31,4.31,0,0,1-1.61-.59l-.83-5,2.37-2.1,3,6.94A6.33,6.33,0,0,1,623.63,403.15Zm.42-8.12,3.25-2.88,3.93,3.57-2.81,6.08a6.15,6.15,0,0,0-1.25.38Zm7.66,1.13,5.2,4.72a6.68,6.68,0,0,1-2.66,1.69c-1.59.34-3.43-.81-5.12-.84Zm3.83,12.42c2-.44,3.48-2.77,5.37-3.51l.45-.14.09.09-1.59,26.16-10.32-23.59C631.53,407.64,633.67,409,635.54,408.58Zm3.26-9a5.17,5.17,0,0,0-1.41.88l-5.4-4.92,1.79-3.87,8.13,5.8-.1,1.75A9.46,9.46,0,0,0,638.8,399.6Zm-3.38-11.44.34-.74,6.61,2.59-.18,3Zm11.82,15.89c1.79-1,2.44-3.71,4-5a7.67,7.67,0,0,1,2.19-1.12l9.46,25.76-20.8-18.91C643.85,404.55,645.83,404.87,647.24,404.05Zm5.16-12a2.45,2.45,0,0,1-.34.31l-2.63-7.14,7.19-.32a10.05,10.05,0,0,0-2.29,2.09C653.39,388.41,653.56,390.72,652.4,392Zm-3.19-7.45-1.53-4.15,10.09-1.69.54.62c.07,1.3.33,2.66-.15,3.75a3.69,3.69,0,0,1-.8,1.11Zm10.06,5.56c1.11-1.72,3.69-2.65,4.52-4.54,0,0,0,0,0,0l16.46,18.66-22.74-8.92C658.31,393.73,658.33,391.57,659.27,390.12Zm7-29.22c-.43-2-2.77-3.46-3.51-5.37,0-.14-.1-.29-.14-.43l.37-.41,26.3,1.56-24,10.55C665.42,364.85,666.7,362.75,666.31,360.9Zm47-61.53A112.2,112.2,0,0,1,725,316.91l-41.41,15.18Zm-.39-.48-30.59,33.66-26.85,9.84a7,7,0,0,0-1.61-2.92l-.17-.13,9.48-24.09,35-31.19A111.94,111.94,0,0,1,712.9,298.89Zm-32.65-27.05a111,111,0,0,1,17.46,11.82l-34,30.29Zm-.56-.3-17.06,43.34-19.8,17.62a4.53,4.53,0,0,0-.64-.13l-1.36-28,19-41.14A110.5,110.5,0,0,1,679.69,271.54Zm-20.48-8.49-18.45,40-2.15-44.1A111.22,111.22,0,0,1,659.21,263.05ZM638,258.86l2.22,45.38-11.94,25.85a17.24,17.24,0,0,1-2.59.94l-11.46-26.2L617,258.76A112,112,0,0,1,638,258.86Zm-21.67,0-2.66,44.73-17.84-40.77A110.91,110.91,0,0,1,616.31,258.82ZM595.21,263l18.36,41.95-1.64,27.71-10-9c-9.23-21.56-19.52-45.7-23-54.3A110.6,110.6,0,0,1,595.21,263ZM550,133.08a16.69,16.69,0,0,1,3.13-.34,4.46,4.46,0,0,1,2.18.41,1,1,0,0,1,.53.94,1.93,1.93,0,0,1-.32,1.09,3.17,3.17,0,0,1-1.75,1.11,11.23,11.23,0,0,1-3.25.41,22.56,22.56,0,0,1-2.4-.15l-1.7-.82.11-.06a16.92,16.92,0,0,0,3-2.1C549.69,133.4,549.84,133.24,550,133.08Zm-2-1.41.3-.27.2.07.14.05Zm-.26-3.2c.81-.55,1.48-1,2-1.32-.68.83-1.51,1.74-2.05,2.29-.42-.06-.87-.11-1.32-.14C546.79,129.05,547.23,128.78,547.68,128.47Zm-7.85,2.75,0,0A11.86,11.86,0,0,0,542,131c.87.07,2.39,0,3.86.13l-2,1.78c-.77.26-1.55.54-2.34.85l-1.68-.63c-.05-.58-.15-1.13-.17-1.36a.45.45,0,0,1,0-.11A.46.46,0,0,1,539.83,131.22Zm5.44,3.09-.89.54h0l.43-.38Zm-23.55,11.63c-2.54-5.55-4.42-9.68-4.54-10-.24-.72-.53-.94-.8-.95h0a7.06,7.06,0,0,0-.36-.88,1.46,1.46,0,0,0-1.38-.63,5.74,5.74,0,0,0-1.49.24c-.14-.48-.57-1.92-.81-2.69-.15-.46-.15-.56-.3-.68a.84.84,0,0,1-.37-.26.57.57,0,0,1-.17-.42.91.91,0,0,1,.18-.53.55.55,0,0,1,.4-.22h.08c.22.05.3.24.47.53a1.11,1.11,0,0,0,1,.57,1.17,1.17,0,0,0,1-.48,1.81,1.81,0,0,1,1.22-.53,5.27,5.27,0,0,1,.64-.05,3,3,0,0,1,1.17.21,2.06,2.06,0,0,1,.3.15l.14.07c0,.1.1.38.2.63s.26.57.62.59a.81.81,0,0,0,.55-.29c.6-.6.93-.67,1-.67h0c.2.27,1.25,1.73,3.13,4a4.55,4.55,0,0,0,3.35,2,2,2,0,0,0,1.4-.51,2.76,2.76,0,0,0,.84-1.91,2.82,2.82,0,0,0-.5-1.53A12.45,12.45,0,0,0,526,129.3a13.72,13.72,0,0,1-2.2-1.71.39.39,0,0,1-.06-.18s0,0,0-.06a.36.36,0,0,1,.19,0h.11c.55.38,8.08,5.52,10.24,6.8a7,7,0,0,0,3.26,1.09l.14.08a58.85,58.85,0,0,0-12.1,7A35.54,35.54,0,0,0,521.72,145.94Zm.82,1.77a34.62,34.62,0,0,1,4.18-4,60.15,60.15,0,0,1,13.17-7.4h.05c-3.41,3-7.4,6.44-10.82,9.4l-5.36,4.64C523.34,149.46,522.93,148.57,522.54,147.71Zm1.74,3.8a155.83,155.83,0,0,1,17.1-14.65l.27.09.23.07c-2.14,1.87-4.56,4-7,6l-10.39,9ZM550,207.38l-1.46-3.4c-.17-.4-.31-.71-.4-.93l-.08-.19c.3-.2.36-.63.36-1.17q0-.51-.06-1.23c-.46-2.52-4.12-10.39-4.67-11.56l.79-.36,0-.12a19,19,0,0,0-.83-2.65c-.36-.89-1.5-1.07-2.52-1.07a11.34,11.34,0,0,0-2,.2,26.69,26.69,0,0,0-1.19-2.52c-.46-.88-.71-1.45-.85-1.79a2.9,2.9,0,0,1-.13-.34.91.91,0,0,0,.41-.75,3,3,0,0,0-.94-1.67c-.12-.26-1.27-2.73-2.95-6.37l-8.4-18.21c4.15-4.05,11.66-11.09,18.5-15.73a29.89,29.89,0,0,0,4,.78c4.2,2.14,6.66,4.13,8.16,6,2.5,3,2.55,5.76,3.65,8.76a46,46,0,0,1,1.48,7.64c1.5,10.77,2.84,28.65,3.56,36.07.68,7,2.22,19.45,3.08,26.16a18.94,18.94,0,0,0-2.48.55,1.53,1.53,0,0,0-1.36,1.65,3.42,3.42,0,0,0,.18,1.05s1.48,3.52,3.12,7.69c1,2.63,2.16,5.51,3,7.94l-2.11.88.41,3.22-.54.26-1-.31-.41-1c-3.05-7-7.62-17.52-11.43-26.3C553,214.19,551.27,210.24,550,207.38Zm21.92,89-14.74-13.36c2.16-1.74,4.38-3.41,6.66-5C566.05,283,568.84,289.36,572,296.42Zm-15.23-13,15.85,14.36,15.88,36c-.47,1.22-1,2.81-1.55,4.74l-14.69-5.79-30.64-34.28A111.71,111.71,0,0,1,556.72,283.46ZM541.16,299l29.75,33.28L529.66,316A111.48,111.48,0,0,1,541.16,299Zm-11.8,17.59,42.48,16.73,13.31,14.89c-.15,1.69-.25,3.47-.25,5.34,0,.24,0,.49,0,.73l-22.64,1L521.19,335.9A109.62,109.62,0,0,1,529.36,316.6Zm53.95,48.62-19.83-9.36,21.44-.95c0,.18,0,.35,0,.53l-1.07.74-1.7,1.17-.49.32-.13.08h0a2.23,2.23,0,1,0,1.54,4.18,9.61,9.61,0,0,1,1.34-.12,2,2,0,0,1,.47,0l.1,0h0a.38.38,0,0,1-.12.17,3.66,3.66,0,0,0-1.56,3C583.3,365.12,583.31,365.17,583.31,365.22ZM521,336.5l39.93,18.85-44.22,1.95A111.87,111.87,0,0,1,521,336.5Zm-4.37,21.56v-.13l45.5-2,21.28,10a3.64,3.64,0,0,0,.94,1.68,26.79,26.79,0,0,0,2.86,3.25l-.09.26-24.49,11-46.13-2.58A110.94,110.94,0,0,1,516.63,358.06Zm-.06,22.18,44.83,2.51-40.74,18.36A109.66,109.66,0,0,1,516.57,380.24Zm4.27,21.48,41.91-18.89L588,384.24a3.65,3.65,0,0,0,1.84,1.09l-17.91,19.79-43.24,15.72A111.79,111.79,0,0,1,520.84,401.72ZM529,421.4l42-15.29-30.12,33.27A111.9,111.9,0,0,1,529,421.4Zm12.32,18.47,31-34.22,26.35-9.58a7.65,7.65,0,0,0,1.69,3.18.1.1,0,0,1,0,0l-9.47,24.33-34.94,31A111.86,111.86,0,0,1,541.31,439.87Zm15.15,15.18,34-30.15L574.06,467A110.92,110.92,0,0,1,556.46,455.05Zm18.16,12.2L591.44,424l20-17.75.37.07,1.33,28.44-18.88,40.7A110,110,0,0,1,574.62,467.25Zm20.24,8.39,18.34-39.55,2,43.67A111.35,111.35,0,0,1,594.86,475.64Zm21,4.19-2.1-45,12.16-26.23a12.47,12.47,0,0,1,2.94-1l10.9,24.93L636.87,480A111.77,111.77,0,0,1,615.87,479.83Zm21.64.1,2.82-46.1,18.36,42A109.75,109.75,0,0,1,637.51,479.93Zm21.79-4.28-18.89-43.2,1.65-26.89L663.38,425,679,467.52A110.15,110.15,0,0,1,659.3,475.65Zm20.27-8.42-15.2-41.37,32.69,29.72A112.22,112.22,0,0,1,679.57,467.23Zm18-12.05-33.64-30.59L654,397.73a7.12,7.12,0,0,0,2.94-1.61c.08-.09.15-.19.22-.28l24,9.4,31.16,35.32A112.1,112.1,0,0,1,697.55,455.18Zm15.17-15.11-30.29-34.33,42.28,16.59A110.41,110.41,0,0,1,712.72,440.07ZM725,421.78l-43.48-17.07L664,384.86a3.43,3.43,0,0,0,.06-.34l28.33-1.26,40.74,19.1A109.92,109.92,0,0,1,725,421.78Zm8.31-20L693.75,383.2l43.75-2A112,112,0,0,1,733.32,401.75Zm-4.87-30.38h9.67c-.06,3.06-.24,6.14-.56,9.24l-45,2-26.26-12.32a11,11,0,0,1-.92-2.83l25.35-11.15,47,2.78q.38,4.08.44,8.25h-9.67a2,2,0,1,0,0,4Zm-514.71-23a1.67,1.67,0,0,0-1.17.52,10.63,10.63,0,0,1-1.38.13,9.84,9.84,0,0,1-1.39-.07l0,2.31a9.35,9.35,0,0,1,1.39-.12,8.63,8.63,0,0,1,1.39.06,1.67,1.67,0,0,0,2.36-.06l-.05-2.3A1.66,1.66,0,0,0,213.74,348.35Zm10.28-.24a1.66,1.66,0,0,0-1.17.52,9.14,9.14,0,0,1-1.39.13,10,10,0,0,1-1.39-.06l0,1.15,0-1.15a1.64,1.64,0,0,0-1.19-.47,1.67,1.67,0,0,0-1.17.52,10.63,10.63,0,0,1-1.38.13,11.67,11.67,0,0,1-1.39-.06l.05,2.3a9.23,9.23,0,0,1,1.39-.12,10,10,0,0,1,1.39.06,1.67,1.67,0,0,0,2.36-.06h0a10.75,10.75,0,0,1,1.38-.12,9.88,9.88,0,0,1,1.39.06,1.69,1.69,0,0,0,1.2.46,1.67,1.67,0,0,0,1.17-.52l-.06-2.3A1.65,1.65,0,0,0,224,348.11Zm5.14-.12a1.7,1.7,0,0,0-1.17.52,9.27,9.27,0,0,1-1.39.13,10,10,0,0,1-1.39-.06l.06,2.3a10.59,10.59,0,0,1,1.38-.12,10,10,0,0,1,1.39.06,1.69,1.69,0,0,0,1.19.46,1.64,1.64,0,0,0,1.17-.52l-.05-2.3A1.65,1.65,0,0,0,229.16,348Zm33.46,1.93A9.84,9.84,0,0,1,264,350a1.69,1.69,0,0,0,1.19.46,1.64,1.64,0,0,0,1.17-.52h0a9.35,9.35,0,0,1,1.39-.12,8.63,8.63,0,0,1,1.39.06,1.69,1.69,0,0,0,1.19.46,1.66,1.66,0,0,0,1.17-.52h0a9.23,9.23,0,0,1,1.39-.12,8.63,8.63,0,0,1,1.39.06,1.69,1.69,0,0,0,1.19.46,1.66,1.66,0,0,0,1.17-.52l0-2.3a1.67,1.67,0,0,0-2.37.05,10.46,10.46,0,0,1-1.38.13,9.84,9.84,0,0,1-1.39-.07l0,1.16,0-1.15a1.67,1.67,0,0,0-2.37.05,9.09,9.09,0,0,1-1.38.12,8.63,8.63,0,0,1-1.39-.06l.05,2.17-.05-2.16a1.65,1.65,0,0,0-2.36.05,9.35,9.35,0,0,1-1.39.12,8.63,8.63,0,0,1-1.39-.06l.05,2.31A10.8,10.8,0,0,1,262.62,349.92Zm67.26,58.37a8.59,8.59,0,0,1-1.34.25,1.61,1.61,0,0,0-1.24-.19,1.67,1.67,0,0,0-1,.76l.57,2.24a1.61,1.61,0,0,0,2.25-.58,9.49,9.49,0,0,1,1.3-.42,8.81,8.81,0,0,1,1.35-.26l-.59-2.23A10.23,10.23,0,0,1,329.88,408.29ZM325,409.53a9.8,9.8,0,0,1-1.34.24,1.62,1.62,0,0,0-2.25.55l.54,2.24a1.64,1.64,0,0,0,1.25.2,1.62,1.62,0,0,0,1-.75,9.66,9.66,0,0,1,1.31-.42,9.93,9.93,0,0,1,1.35-.24l-.57-2.24A9.06,9.06,0,0,1,325,409.53Zm-4.9,1.2a8.37,8.37,0,0,1-1.34.23,1.63,1.63,0,0,0-1.25-.2,1.58,1.58,0,0,0-1,.75l.27,1.12-.27-1.12a10.09,10.09,0,0,1-1.3.4,8.67,8.67,0,0,1-1.35.23,1.68,1.68,0,0,0-1.25-.21,1.65,1.65,0,0,0-1,.75l.53,2.24a1.59,1.59,0,0,0,1.25.21,1.56,1.56,0,0,0,1-.75,11.51,11.51,0,0,1,1.31-.4,9.79,9.79,0,0,1,1.35-.23h0a1.62,1.62,0,0,0,1.24.21,1.64,1.64,0,0,0,1-.75,9.49,9.49,0,0,1,1.3-.42,11.94,11.94,0,0,1,1.35-.23l-.54-2.24A9.72,9.72,0,0,1,320.09,410.73Zm-9.82,2.35a9.79,9.79,0,0,1-1.35.23,1.57,1.57,0,0,0-1.24-.21,1.62,1.62,0,0,0-1,.74l.54,2.25a1.61,1.61,0,0,0,1.24.21,1.64,1.64,0,0,0,1-.75,11.3,11.3,0,0,1,1.3-.4,10,10,0,0,1,1.35-.23l-.53-2.24A8.52,8.52,0,0,1,310.27,413.08Zm-4.91,1.17a9.65,9.65,0,0,1-1.35.22,1.66,1.66,0,0,0-1.24-.21,1.64,1.64,0,0,0-1,.75l.53,2.24a1.58,1.58,0,0,0,1.24.21,1.6,1.6,0,0,0,1-.74,9.67,9.67,0,0,1,2.66-.63l-.54-2.25A9.12,9.12,0,0,1,305.36,414.25Zm-50.79,15.52a1.67,1.67,0,0,0,1-.77,9.37,9.37,0,0,1,1.3-.44,9.93,9.93,0,0,1,1.34-.27l-.59-2.23a9.31,9.31,0,0,1-1.3.45,8.38,8.38,0,0,1-1.34.25,1.63,1.63,0,0,0-1.25-.17,1.6,1.6,0,0,0-1,.77l.58,2.23A1.64,1.64,0,0,0,254.57,429.77Zm-4.89,1.28a1.63,1.63,0,0,0,1-.77,9.43,9.43,0,0,1,1.3-.43,8.94,8.94,0,0,1,1.34-.26l-.58-2.23a9.43,9.43,0,0,1-1.3.43,8.71,8.71,0,0,1-1.34.26,1.59,1.59,0,0,0-1.25-.18,1.62,1.62,0,0,0-1,.76l.58,2.24A1.68,1.68,0,0,0,249.68,431.05Zm-12.91.51a9.8,9.8,0,0,1-1.34.24,1.63,1.63,0,0,0-1.25-.19,1.6,1.6,0,0,0-1,.75l.55,2.24A1.62,1.62,0,0,0,236,434a9.49,9.49,0,0,1,1.3-.42,8.7,8.7,0,0,1,1.35-.25l-.57-2.23A9.06,9.06,0,0,1,236.77,431.56Zm-4.89,1.22a9.93,9.93,0,0,1-1.35.24,1.62,1.62,0,0,0-1.24-.2,1.6,1.6,0,0,0-1,.75l.54,2.24a1.6,1.6,0,0,0,1.25.2,1.62,1.62,0,0,0,1-.75,10,10,0,0,1,1.3-.42,10.2,10.2,0,0,1,1.35-.24l-.55-2.24A10,10,0,0,1,231.88,432.78ZM227,434a11.8,11.8,0,0,1-1.34.23,1.61,1.61,0,0,0-2.26.54l.54,2.24a1.59,1.59,0,0,0,1.25.21,1.65,1.65,0,0,0,1-.75,10,10,0,0,1,1.3-.41,10.2,10.2,0,0,1,1.35-.24l-.54-2.24A9.66,9.66,0,0,1,227,434Zm-24.58,5.7a11.05,11.05,0,0,1-1.35.2,1.57,1.57,0,0,0-1.24-.24,1.66,1.66,0,0,0-1,.73l.49,2.25a1.66,1.66,0,0,0,1.24.24,1.63,1.63,0,0,0,1-.73,9.68,9.68,0,0,1,1.32-.38,8.17,8.17,0,0,1,1.35-.2l-.5-2.26A8.57,8.57,0,0,1,202.39,439.69Zm-4.93,1.06a8.22,8.22,0,0,1-1.35.19,1.66,1.66,0,0,0-1.24-.24,1.6,1.6,0,0,0-1,.72l.47,2.25a1.62,1.62,0,0,0,1.24.25,1.58,1.58,0,0,0,1-.72,9.17,9.17,0,0,1,1.32-.37,9.52,9.52,0,0,1,1.36-.2l-.49-2.25A11.88,11.88,0,0,1,197.46,440.75Z" transform="translate(-28.18 -91.72)"/></svg>