<svg xmlns="http://www.w3.org/2000/svg" xmlns:xlink="http://www.w3.org/1999/xlink" viewBox="0 0 150 49.05"><defs><style>.cls-1{isolation:isolate;}.cls-2{mix-blend-mode:multiply;}.cls-3{fill:#9d9d9c;}.cls-4{fill:url(#linear-gradient);}.cls-5{fill:url(#radial-gradient);}.cls-6{fill:#fff;}</style><linearGradient id="linear-gradient" x1="133.92" y1="123.89" x2="133.92" y2="74.84" gradientUnits="userSpaceOnUse"><stop offset="0.16" stop-color="#fff"/><stop offset="0.38" stop-color="#fbfbfb"/><stop offset="0.6" stop-color="#efefef"/><stop offset="0.83" stop-color="#dadada"/><stop offset="1" stop-color="#c6c6c6"/></linearGradient><radialGradient id="radial-gradient" cx="175.5" cy="77.7" r="56.08" gradientTransform="translate(127.59 -109.3) rotate(45)" gradientUnits="userSpaceOnUse"><stop offset="0" stop-color="#fcea10"/><stop offset="1" stop-color="#063"/></radialGradient></defs><title>DarkGreenMenu</title><g class="cls-1"><g id="Vrstva_1" data-name="Vrstva 1"><g class="cls-2"><path class="cls-3" d="M181,97.18a9.07,9.07,0,0,0-8.4-9.05v0H118v0a9.08,9.08,0,0,0,0,18.12v0h54.6v0A9.08,9.08,0,0,0,181,97.18Z" transform="translate(-70.26 -74.84)"/></g><path class="cls-4" d="M93.23,74.84v.06a24.51,24.51,0,0,0,0,48.93v.06H197.59v-49Z" transform="translate(-70.26 -74.84)"/><circle class="cls-5" cx="195.73" cy="99.37" r="24.52" transform="translate(-83.19 92.67) rotate(-45)"/><rect class="cls-6" x="111.68" y="12.48" width="27.59" height="5.88" rx="1.65" ry="1.65"/><rect class="cls-6" x="111.68" y="21.59" width="27.59" height="5.88" rx="1.65" ry="1.65"/><rect class="cls-6" x="111.68" y="30.69" width="27.59" height="5.87" rx="1.65" ry="1.65"/><path d="M102.83,108.49V95.8l-5,12.69H96.24l-5-12.69v12.69H87.54V90.9h5.24l4.28,11,4.27-11h5.28v17.59Z" transform="translate(-70.26 -74.84)"/><path d="M110.1,108.49V90.9h12.45v3.29h-8.71v3.7h8.52v3.29h-8.52v4h8.71v3.3Z" transform="translate(-70.26 -74.84)"/><path d="M137.62,108.49,129.23,97v11.47h-3.75V90.9h3.85l8.15,11v-11h3.75v17.59Z" transform="translate(-70.26 -74.84)"/><path d="M144.72,101.45V90.9h3.8v10.44a4.13,4.13,0,1,0,8.26,0V90.9h3.82v10.55c0,4.35-2.58,7.36-7.94,7.36S144.72,105.8,144.72,101.45Z" transform="translate(-70.26 -74.84)"/></g></g></svg>