<?xml version="1.0" ?><!DOCTYPE svg  PUBLIC '-//W3C//DTD SVG 1.1//EN'  'http://www.w3.org/Graphics/SVG/1.1/DTD/svg11.dtd'><svg enable-background="new 0 0 1024 1024" height="1024px" id="Share_1_" version="1.1" viewBox="0 0 1024 1024" width="1024px" xml:space="preserve" xmlns="http://www.w3.org/2000/svg" xmlns:xlink="http://www.w3.org/1999/xlink"><g id="Background"><linearGradient gradientTransform="matrix(0.9397 0.3421 0.3421 -0.9397 275.9532 765.9631)" gradientUnits="userSpaceOnUse" id="bg_1_" x1="464.1323" x2="-194.2839" y1="-72.9106" y2="711.6677"><stop offset="0" style="stop-color:#2E701A"/><stop offset="0.1299" style="stop-color:#2F791C"/><stop offset="0.3418" style="stop-color:#309123"/><stop offset="0.6092" style="stop-color:#33B92D"/><stop offset="0.9189" style="stop-color:#37EF3C"/><stop offset="1" style="stop-color:#38FF40"/></linearGradient><circle cx="512.001" cy="512" fill="url(#bg_1_)" id="bg" r="512"/></g><path d="M672.877,613.708c-22.307,0-42.835,7.61-59.134,20.374l-205.25-100.107  c0.166-2.303,0.254-4.628,0.254-6.974c0-1.098-0.025-2.189-0.062-3.28L617.389,421.93c15.668,11.118,34.815,17.654,55.489,17.654  c53.017,0,95.995-42.979,95.995-95.995c0-53.016-42.979-95.995-95.995-95.995s-95.995,42.979-95.995,95.995  c0,2.869,0.133,5.706,0.38,8.51L372.577,451.93c-16.409-13.093-37.201-20.924-59.825-20.924c-53.017,0-95.995,42.979-95.995,95.995  s42.979,95.995,95.995,95.995c21.258,0,40.897-6.915,56.804-18.61l207.421,101.166c-0.059,1.377-0.095,2.76-0.095,4.151  c0,53.017,42.979,95.995,95.995,95.995s95.995-42.979,95.995-95.995C768.872,656.687,725.894,613.708,672.877,613.708z" fill="#FFFFFF" id="Share"/></svg>