<?xml version="1.0" ?><svg id="Слой_1" style="enable-background:new 0 0 200 200;" version="1.1" viewBox="0 0 200 200" xml:space="preserve" xmlns="http://www.w3.org/2000/svg" xmlns:xlink="http://www.w3.org/1999/xlink"><style type="text/css">
	.st0{fill:url(#SVGID_1_);}
	.st1{fill:url(#SVGID_2_);}
	.st2{fill:url(#SVGID_3_);}
	.st3{fill:url(#SVGID_4_);}
</style><g><linearGradient gradientUnits="userSpaceOnUse" id="SVGID_1_" x1="7.7715" x2="18.7202" y1="100.4421" y2="100.4421"><stop offset="0" style="stop-color:#F7931E"/><stop offset="1" style="stop-color:#AF1259"/></linearGradient><circle class="st0" cx="13.2" cy="100.4" r="5.5"/><linearGradient gradientUnits="userSpaceOnUse" id="SVGID_2_" x1="61.4995" x2="76.5026" y1="30.8135" y2="30.8135"><stop offset="0" style="stop-color:#F7931E"/><stop offset="1" style="stop-color:#AF1259"/></linearGradient><circle class="st1" cx="69" cy="30.8" r="7.5"/><linearGradient gradientUnits="userSpaceOnUse" id="SVGID_3_" x1="153.7372" x2="171.7703" y1="146.6939" y2="146.6939"><stop offset="0" style="stop-color:#F7931E"/><stop offset="1" style="stop-color:#AF1259"/></linearGradient><circle class="st2" cx="162.8" cy="146.7" r="9"/><linearGradient gradientUnits="userSpaceOnUse" id="SVGID_4_" x1="18.9545" x2="187.1092" y1="102.9891" y2="102.9891"><stop offset="0" style="stop-color:#F7931E"/><stop offset="1" style="stop-color:#AF1259"/></linearGradient><path class="st3" d="M179.9,52.1c-15.3-28.7-49.7-40.5-79.4-27.1c-6.8,3-12.7,7.1-17.7,12c-7.4,7.2-18.3,10-28.2,6.7   C47,41,38.2,41.8,30.7,46.9c-10.4,7-14.5,20.5-9.9,32.1c1.3,3.3,3.2,6.2,5.5,8.6c4.2,4.5,4.4,11.3,0.9,16.3   c-8.9,12.6-10.6,29.6-3.1,44.1c7.2,14,21.9,22.6,36.5,23.3c11.1,0.5,21.8,3.9,31.2,9.9c10.1,6.4,22.8,7.1,34.1,1.2   c12.2-6.3,19-18.7,18.8-31.5c-0.1-6.4,3.4-12.3,9.1-15.2l0.1-0.1C184.3,119.9,196,82.4,179.9,52.1z M125,93.4l-23.2-0.2l0.3,22.2   c2.7,14.7,17.5,9.6,23,4.4v12.4c-4.3,3.3-12.8,5.8-19.7,6.1c-11.9-1.2-22.1-5-22.7-22.9v-22H75V78.7C84.8,78.1,93.6,76,92.9,60   l9.3-0.2l-0.5,18.8H125V93.4z"/></g></svg>